<?xml version="1.0" encoding="UTF-8" standalone="no"?><svg xmlns="http://www.w3.org/2000/svg" xmlns:xlink="http://www.w3.org/1999/xlink" contentStyleType="text/css" height="1079px" preserveAspectRatio="none" style="width:1188px;height:1079px;background:#FFFFFF;" version="1.1" viewBox="0 0 1188 1079" width="1188px" zoomAndPan="magnify"><defs/><g><!--MD5=[8cb73eb1c2dbd51a00fb891073577f9a]
cluster entity container--><g id="cluster_entity container"><path d="M8.5,6 L134.5,6 A3.75,3.75 0 0 1 137,8.5 L144,28.2969 L1178.5,28.2969 A2.5,2.5 0 0 1 1181,30.7969 L1181,1069.5 A2.5,2.5 0 0 1 1178.5,1072 L8.5,1072 A2.5,2.5 0 0 1 6,1069.5 L6,8.5 A2.5,2.5 0 0 1 8.5,6 " fill="#DDDDDD" style="stroke:#000000;stroke-width:1.5;"/><line style="stroke:#000000;stroke-width:1.5;" x1="6" x2="144" y1="28.2969" y2="28.2969"/><text fill="#000000" font-family="sans-serif" font-size="14" font-weight="bold" lengthAdjust="spacing" textLength="125" x="10" y="20.9951">entity container</text></g><!--MD5=[299b79098022c64b03f396ac59ef46ab]
class GameComponent--><g id="elem_GameComponent"><rect codeLine="2" fill="#F1F1F1" height="129.4844" id="GameComponent" rx="2.5" ry="2.5" style="stroke:#181818;stroke-width:0.5;" width="440" x="166" y="41"/><ellipse cx="320.25" cy="57" fill="#A9DCDF" rx="11" ry="11" style="stroke:#181818;stroke-width:1.0;"/><path d="M320.3594,52.3438 L319.2031,57.4219 L321.5313,57.4219 L320.3594,52.3438 Z M318.875,50.1094 L321.8594,50.1094 L325.2188,62.5 L322.7656,62.5 L322,59.4375 L318.7188,59.4375 L317.9688,62.5 L315.5313,62.5 L318.875,50.1094 Z " fill="#000000"/><text fill="#000000" font-family="sans-serif" font-size="14" font-style="italic" lengthAdjust="spacing" textLength="123" x="340.75" y="61.8467">GameComponent</text><line style="stroke:#181818;stroke-width:0.5;" x1="167" x2="605" y1="73" y2="73"/><rect fill="none" height="6" style="stroke:#C82930;stroke-width:1.0;" width="6" x="174" y="83.6484"/><text fill="#000000" font-family="sans-serif" font-size="14" lengthAdjust="spacing" textLength="56" x="186" y="89.9951">String id</text><rect fill="none" height="6" style="stroke:#C82930;stroke-width:1.0;" width="6" x="174" y="99.9453"/><text fill="#000000" font-family="sans-serif" font-size="14" lengthAdjust="spacing" textLength="83" x="186" y="106.292">String name</text><rect fill="none" height="6" style="stroke:#C82930;stroke-width:1.0;" width="6" x="174" y="116.2422"/><text fill="#000000" font-family="sans-serif" font-size="14" lengthAdjust="spacing" textLength="121" x="186" y="122.5889">String description</text><line style="stroke:#181818;stroke-width:0.5;" x1="167" x2="605" y1="129.8906" y2="129.8906"/><ellipse cx="177" cy="143.5391" fill="#84BE84" rx="3" ry="3" style="stroke:#038048;stroke-width:1.0;"/><text fill="#000000" font-family="sans-serif" font-size="14" font-style="italic" lengthAdjust="spacing" textLength="115" x="186" y="146.8857">void saveOnDb()</text><polygon fill="#FFFF44" points="177,154.8359,181,158.8359,177,162.8359,173,158.8359" style="stroke:#B38D22;stroke-width:1.0;"/><text fill="#000000" font-family="sans-serif" font-size="14" lengthAdjust="spacing" textLength="414" x="186" y="163.1826">void setKnownValuesOnStatement(PreparedStatement stm)</text></g><!--MD5=[f5795bcb344c90704c3bd8ee73903a6a]
class AbstractEntity--><g id="elem_AbstractEntity"><rect codeLine="10" fill="#F1F1F1" height="373.9375" id="AbstractEntity" rx="2.5" ry="2.5" style="stroke:#181818;stroke-width:0.5;" width="728" x="22" y="230"/><ellipse cx="333.75" cy="246" fill="#A9DCDF" rx="11" ry="11" style="stroke:#181818;stroke-width:1.0;"/><path d="M333.8594,241.3438 L332.7031,246.4219 L335.0313,246.4219 L333.8594,241.3438 Z M332.375,239.1094 L335.3594,239.1094 L338.7188,251.5 L336.2656,251.5 L335.5,248.4375 L332.2188,248.4375 L331.4688,251.5 L329.0313,251.5 L332.375,239.1094 Z " fill="#000000"/><text fill="#000000" font-family="sans-serif" font-size="14" font-style="italic" lengthAdjust="spacing" textLength="96" x="354.25" y="250.8467">AbstractEntity</text><line style="stroke:#181818;stroke-width:0.5;" x1="23" x2="749" y1="262" y2="262"/><rect fill="none" height="6" style="stroke:#C82930;stroke-width:1.0;" width="6" x="30" y="272.6484"/><text fill="#000000" font-family="sans-serif" font-size="14" lengthAdjust="spacing" textLength="121" x="42" y="278.9951">Set&lt;String&gt; alias</text><rect fill="none" height="6" style="stroke:#C82930;stroke-width:1.0;" width="6" x="30" y="288.9453"/><text fill="#000000" font-family="sans-serif" font-size="14" lengthAdjust="spacing" textLength="172" x="42" y="295.292">GameComponent parent</text><rect fill="none" height="6" style="stroke:#C82930;stroke-width:1.0;" width="6" x="30" y="305.2422"/><text fill="#000000" font-family="sans-serif" font-size="14" lengthAdjust="spacing" textLength="237" x="42" y="311.5889">PlayableRoom closestRoomParent</text><rect fill="none" height="6" style="stroke:#C82930;stroke-width:1.0;" width="6" x="30" y="321.5391"/><text fill="#000000" font-family="sans-serif" font-size="14" lengthAdjust="spacing" textLength="182" x="42" y="327.8857">List&lt;ObjectEvent&gt; events</text><rect fill="none" height="6" style="stroke:#C82930;stroke-width:1.0;" width="6" x="30" y="337.8359"/><text fill="#000000" font-family="sans-serif" font-size="14" lengthAdjust="spacing" textLength="322" x="42" y="344.1826">List&lt;String&gt; requiredWearedItemsIdToInteract</text><rect fill="none" height="6" style="stroke:#C82930;stroke-width:1.0;" width="6" x="30" y="354.1328"/><text fill="#000000" font-family="sans-serif" font-size="14" lengthAdjust="spacing" textLength="337" x="42" y="360.4795">List&lt;IWearable&gt; requiredWearedItemsToInteract</text><rect fill="none" height="6" style="stroke:#C82930;stroke-width:1.0;" width="6" x="30" y="370.4297"/><text fill="#000000" font-family="sans-serif" font-size="14" lengthAdjust="spacing" textLength="216" x="42" y="376.7764">String failedInteractionMessage</text><rect fill="none" height="6" style="stroke:#C82930;stroke-width:1.0;" width="6" x="30" y="386.7266"/><text fill="#000000" font-family="sans-serif" font-size="14" lengthAdjust="spacing" textLength="210" x="42" y="393.0732">boolean destroyFromInventory</text><line style="stroke:#181818;stroke-width:0.5;" x1="23" x2="749" y1="400.375" y2="400.375"/><ellipse cx="33" cy="414.0234" fill="#84BE84" rx="3" ry="3" style="stroke:#038048;stroke-width:1.0;"/><text fill="#000000" font-family="sans-serif" font-size="14" lengthAdjust="spacing" textLength="85" x="42" y="417.3701">void lookAt()</text><ellipse cx="33" cy="430.3203" fill="#84BE84" rx="3" ry="3" style="stroke:#038048;stroke-width:1.0;"/><text fill="#000000" font-family="sans-serif" font-size="14" lengthAdjust="spacing" textLength="663" x="42" y="433.667">void processReferences(Multimap&lt;String, AbstractEntity&gt; objects, List&lt;AbstractRoom&gt; rooms)</text><polygon fill="#FFFF44" points="33,441.6172,37,445.6172,33,449.6172,29,445.6172" style="stroke:#B38D22;stroke-width:1.0;"/><text fill="#000000" font-family="sans-serif" font-size="14" lengthAdjust="spacing" textLength="233" x="42" y="449.9639">void triggerEvent(EventType type)</text><polygon fill="#FFFF44" points="33,457.9141,37,461.9141,33,465.9141,29,461.9141" style="stroke:#B38D22;stroke-width:1.0;"/><text fill="#000000" font-family="sans-serif" font-size="14" lengthAdjust="spacing" textLength="147" x="42" y="466.2607">boolean canInteract()</text><polygon fill="#FFFF44" points="33,474.2109,37,478.2109,33,482.2109,29,478.2109" style="stroke:#B38D22;stroke-width:1.0;"/><text fill="#000000" font-family="sans-serif" font-size="14" lengthAdjust="spacing" textLength="620" x="42" y="482.5576">void loadLocation(ResultSet resultSet, List&lt;AbstractRoom&gt; allRooms, Inventory inventory)</text><rect fill="#F24D5C" height="6" style="stroke:#C82930;stroke-width:1.0;" width="6" x="30" y="492.5078"/><text fill="#000000" font-family="sans-serif" font-size="14" lengthAdjust="spacing" textLength="377" x="42" y="498.8545">void processRoomParent(List&lt;AbstractRoom&gt; rooms)</text><rect fill="#F24D5C" height="6" style="stroke:#C82930;stroke-width:1.0;" width="6" x="30" y="508.8047"/><text fill="#000000" font-family="sans-serif" font-size="14" lengthAdjust="spacing" textLength="702" x="42" y="515.1514">void processEventReferences(Multimap&lt;String, AbstractEntity&gt; objects, List&lt;AbstractRoom&gt; rooms)</text><rect fill="#F24D5C" height="6" style="stroke:#C82930;stroke-width:1.0;" width="6" x="30" y="525.1016"/><text fill="#000000" font-family="sans-serif" font-size="14" lengthAdjust="spacing" textLength="141" x="42" y="531.4482">void loadObjEvents()</text><rect fill="#F24D5C" height="6" style="stroke:#C82930;stroke-width:1.0;" width="6" x="30" y="541.3984"/><text fill="#000000" font-family="sans-serif" font-size="14" lengthAdjust="spacing" textLength="162" x="42" y="547.7451">void saveEventsOnDB()</text><rect fill="#F24D5C" height="6" style="stroke:#C82930;stroke-width:1.0;" width="6" x="30" y="557.6953"/><text fill="#000000" font-family="sans-serif" font-size="14" lengthAdjust="spacing" textLength="163" x="42" y="564.042">void saveAliasesOnDB()</text><rect fill="#F24D5C" height="6" style="stroke:#C82930;stroke-width:1.0;" width="6" x="30" y="573.9922"/><text fill="#000000" font-family="sans-serif" font-size="14" lengthAdjust="spacing" textLength="269" x="42" y="580.3389">void saveRequiredWearedItemsOnDB()</text><rect fill="#F24D5C" height="6" style="stroke:#C82930;stroke-width:1.0;" width="6" x="30" y="590.2891"/><text fill="#000000" font-family="sans-serif" font-size="14" lengthAdjust="spacing" textLength="178" x="42" y="596.6357">void saveExternalsOnDB()</text></g><!--MD5=[231bc49e7942fee430027f3fb5cd9398]
class AbstractContainer--><g id="elem_AbstractContainer"><rect codeLine="49" fill="#F1F1F1" height="194.6719" id="AbstractContainer" rx="2.5" ry="2.5" style="stroke:#181818;stroke-width:0.5;" width="615" x="134.5" y="664"/><ellipse cx="375.75" cy="680" fill="#A9DCDF" rx="11" ry="11" style="stroke:#181818;stroke-width:1.0;"/><path d="M375.8594,675.3438 L374.7031,680.4219 L377.0313,680.4219 L375.8594,675.3438 Z M374.375,673.1094 L377.3594,673.1094 L380.7188,685.5 L378.2656,685.5 L377.5,682.4375 L374.2188,682.4375 L373.4688,685.5 L371.0313,685.5 L374.375,673.1094 Z " fill="#000000"/><text fill="#000000" font-family="sans-serif" font-size="14" font-style="italic" lengthAdjust="spacing" textLength="124" x="396.25" y="684.8467">AbstractContainer</text><line style="stroke:#181818;stroke-width:0.5;" x1="135.5" x2="748.5" y1="696" y2="696"/><polygon fill="none" points="145.5,704.6484,149.5,708.6484,145.5,712.6484,141.5,708.6484" style="stroke:#B38D22;stroke-width:1.0;"/><text fill="#000000" font-family="sans-serif" font-size="14" lengthAdjust="spacing" textLength="178" x="154.5" y="712.9951">boolean contentRevealed</text><rect fill="none" height="6" style="stroke:#C82930;stroke-width:1.0;" width="6" x="142.5" y="722.9453"/><text fill="#000000" font-family="sans-serif" font-size="14" lengthAdjust="spacing" textLength="165" x="154.5" y="729.292">List&lt;AbstractEntity&gt; list</text><rect fill="none" height="6" style="stroke:#C82930;stroke-width:1.0;" width="6" x="142.5" y="739.2422"/><text fill="#000000" font-family="sans-serif" font-size="14" lengthAdjust="spacing" textLength="118" x="154.5" y="745.5889">boolean forFluids</text><line style="stroke:#181818;stroke-width:0.5;" x1="135.5" x2="748.5" y1="752.8906" y2="752.8906"/><ellipse cx="145.5" cy="766.5391" fill="#84BE84" rx="3" ry="3" style="stroke:#038048;stroke-width:1.0;"/><text fill="#000000" font-family="sans-serif" font-size="14" lengthAdjust="spacing" textLength="210" x="154.5" y="769.8857">void add(AbstractEntity object)</text><ellipse cx="145.5" cy="782.8359" fill="#84BE84" rx="3" ry="3" style="stroke:#038048;stroke-width:1.0;"/><text fill="#000000" font-family="sans-serif" font-size="14" lengthAdjust="spacing" textLength="281" x="154.5" y="786.1826">void removeObject(AbstractEntity object)</text><ellipse cx="145.5" cy="799.1328" fill="#84BE84" rx="3" ry="3" style="stroke:#038048;stroke-width:1.0;"/><text fill="#000000" font-family="sans-serif" font-size="14" lengthAdjust="spacing" textLength="221" x="154.5" y="802.4795">StringBuilder getContentString()</text><ellipse cx="145.5" cy="815.4297" fill="#84BE84" rx="3" ry="3" style="stroke:#038048;stroke-width:1.0;"/><text fill="#000000" font-family="sans-serif" font-size="14" lengthAdjust="spacing" textLength="390" x="154.5" y="818.7764">ActionState insert(AbstractEntity obj, Inventory inventory)</text><ellipse cx="145.5" cy="831.7266" fill="#84BE84" rx="3" ry="3" style="stroke:#038048;stroke-width:1.0;"/><text fill="#000000" font-family="sans-serif" font-size="14" lengthAdjust="spacing" text-decoration="underline" textLength="408" x="154.5" y="835.0732">List&lt;AbstractEntity&gt; getAllObjectsInside(AbstractEntity obj)</text><ellipse cx="145.5" cy="848.0234" fill="#84BE84" rx="3" ry="3" style="stroke:#038048;stroke-width:1.0;"/><text fill="#000000" font-family="sans-serif" font-size="14" lengthAdjust="spacing" text-decoration="underline" textLength="589" x="154.5" y="851.3701">void addObjectToContainerId(AbstractEntity object, List&lt;AbstractEntity&gt; list, String id)</text></g><!--MD5=[5b6a8c4f5886249c3febd39968e1d21a]
class IPickupable--><g id="elem_IPickupable"><rect codeLine="35" fill="#F1F1F1" height="64.2969" id="IPickupable" rx="2.5" ry="2.5" style="stroke:#181818;stroke-width:0.5;" width="165" x="785.5" y="385"/><ellipse cx="825.25" cy="401" fill="#B4A7E5" rx="11" ry="11" style="stroke:#181818;stroke-width:1.0;"/><path d="M821.1719,396.7656 L821.1719,394.6094 L828.5625,394.6094 L828.5625,396.7656 L826.0938,396.7656 L826.0938,404.8438 L828.5625,404.8438 L828.5625,407 L821.1719,407 L821.1719,404.8438 L823.6406,404.8438 L823.6406,396.7656 L821.1719,396.7656 Z " fill="#000000"/><text fill="#000000" font-family="sans-serif" font-size="14" font-style="italic" lengthAdjust="spacing" textLength="78" x="844.75" y="405.8467">IPickupable</text><line style="stroke:#181818;stroke-width:0.5;" x1="786.5" x2="949.5" y1="417" y2="417"/><line style="stroke:#181818;stroke-width:0.5;" x1="786.5" x2="949.5" y1="425" y2="425"/><ellipse cx="796.5" cy="438.6484" fill="#84BE84" rx="3" ry="3" style="stroke:#038048;stroke-width:1.0;"/><text fill="#000000" font-family="sans-serif" font-size="14" lengthAdjust="spacing" textLength="139" x="805.5" y="441.9951">ActionState pickup()</text></g><!--MD5=[ac4ed53d62c052f2559b4a24fbe57604]
class IWearable--><g id="elem_IWearable"><rect codeLine="39" fill="#F1F1F1" height="80.5938" id="IWearable" rx="2.5" ry="2.5" style="stroke:#181818;stroke-width:0.5;" width="170" x="785" y="721"/><ellipse cx="831.25" cy="737" fill="#B4A7E5" rx="11" ry="11" style="stroke:#181818;stroke-width:1.0;"/><path d="M827.1719,732.7656 L827.1719,730.6094 L834.5625,730.6094 L834.5625,732.7656 L832.0938,732.7656 L832.0938,740.8438 L834.5625,740.8438 L834.5625,743 L827.1719,743 L827.1719,740.8438 L829.6406,740.8438 L829.6406,732.7656 L827.1719,732.7656 Z " fill="#000000"/><text fill="#000000" font-family="sans-serif" font-size="14" font-style="italic" lengthAdjust="spacing" textLength="69" x="851.75" y="741.8467">IWearable</text><line style="stroke:#181818;stroke-width:0.5;" x1="786" x2="954" y1="753" y2="753"/><line style="stroke:#181818;stroke-width:0.5;" x1="786" x2="954" y1="761" y2="761"/><ellipse cx="796" cy="774.6484" fill="#84BE84" rx="3" ry="3" style="stroke:#038048;stroke-width:1.0;"/><text fill="#000000" font-family="sans-serif" font-size="14" lengthAdjust="spacing" textLength="126" x="805" y="777.9951">ActionState wear()</text><ellipse cx="796" cy="790.9453" fill="#84BE84" rx="3" ry="3" style="stroke:#038048;stroke-width:1.0;"/><text fill="#000000" font-family="sans-serif" font-size="14" lengthAdjust="spacing" textLength="144" x="805" y="794.292">ActionState unwear()</text></g><!--MD5=[10f0bc30af2cfecf3ef477b487a33739]
class IOpenable--><g id="elem_IOpenable"><rect codeLine="44" fill="#F1F1F1" height="64.2969" id="IOpenable" rx="2.5" ry="2.5" style="stroke:#181818;stroke-width:0.5;" width="155" x="985.5" y="385"/><ellipse cx="1023.9" cy="401" fill="#B4A7E5" rx="11" ry="11" style="stroke:#181818;stroke-width:1.0;"/><path d="M1019.8219,396.7656 L1019.8219,394.6094 L1027.2125,394.6094 L1027.2125,396.7656 L1024.7438,396.7656 L1024.7438,404.8438 L1027.2125,404.8438 L1027.2125,407 L1019.8219,407 L1019.8219,404.8438 L1022.2906,404.8438 L1022.2906,396.7656 L1019.8219,396.7656 Z " fill="#000000"/><text fill="#000000" font-family="sans-serif" font-size="14" font-style="italic" lengthAdjust="spacing" textLength="71" x="1043.1" y="405.8467">IOpenable</text><line style="stroke:#181818;stroke-width:0.5;" x1="986.5" x2="1139.5" y1="417" y2="417"/><line style="stroke:#181818;stroke-width:0.5;" x1="986.5" x2="1139.5" y1="425" y2="425"/><ellipse cx="996.5" cy="438.6484" fill="#84BE84" rx="3" ry="3" style="stroke:#038048;stroke-width:1.0;"/><text fill="#000000" font-family="sans-serif" font-size="14" lengthAdjust="spacing" textLength="129" x="1005.5" y="441.9951">ActionState open()</text></g><!--MD5=[dd65ebfd985126f27a516ddad37c6fec]
class BasicContainer--><g id="elem_BasicContainer"><rect codeLine="62" fill="#F1F1F1" height="48" id="BasicContainer" rx="2.5" ry="2.5" style="stroke:#181818;stroke-width:0.5;" width="136" x="448" y="951.5"/><ellipse cx="463" cy="967.5" fill="#ADD1B2" rx="11" ry="11" style="stroke:#181818;stroke-width:1.0;"/><path d="M465.9688,973.1406 Q465.3906,973.4375 464.75,973.5781 Q464.1094,973.7344 463.4063,973.7344 Q460.9063,973.7344 459.5781,972.0938 Q458.2656,970.4375 458.2656,967.3125 Q458.2656,964.1875 459.5781,962.5313 Q460.9063,960.875 463.4063,960.875 Q464.1094,960.875 464.75,961.0313 Q465.4063,961.1875 465.9688,961.4844 L465.9688,964.2031 Q465.3438,963.625 464.75,963.3594 Q464.1563,963.0781 463.5313,963.0781 Q462.1875,963.0781 461.5,964.1563 Q460.8125,965.2188 460.8125,967.3125 Q460.8125,969.4063 461.5,970.4844 Q462.1875,971.5469 463.5313,971.5469 Q464.1563,971.5469 464.75,971.2813 Q465.3438,971 465.9688,970.4219 L465.9688,973.1406 Z " fill="#000000"/><text fill="#000000" font-family="sans-serif" font-size="14" lengthAdjust="spacing" textLength="104" x="477" y="972.3467">BasicContainer</text><line style="stroke:#181818;stroke-width:0.5;" x1="449" x2="583" y1="983.5" y2="983.5"/><line style="stroke:#181818;stroke-width:0.5;" x1="449" x2="583" y1="991.5" y2="991.5"/></g><!--MD5=[be75b9b69e51cd088a1ecd453282e11f]
class ChestlikeContainer--><g id="elem_ChestlikeContainer"><rect codeLine="65" fill="#F1F1F1" height="113.1875" id="ChestlikeContainer" rx="2.5" ry="2.5" style="stroke:#181818;stroke-width:0.5;" width="249" x="817.5" y="919"/><ellipse cx="872.25" cy="935" fill="#ADD1B2" rx="11" ry="11" style="stroke:#181818;stroke-width:1.0;"/><path d="M875.2188,940.6406 Q874.6406,940.9375 874,941.0781 Q873.3594,941.2344 872.6563,941.2344 Q870.1563,941.2344 868.8281,939.5938 Q867.5156,937.9375 867.5156,934.8125 Q867.5156,931.6875 868.8281,930.0313 Q870.1563,928.375 872.6563,928.375 Q873.3594,928.375 874,928.5313 Q874.6563,928.6875 875.2188,928.9844 L875.2188,931.7031 Q874.5938,931.125 874,930.8594 Q873.4063,930.5781 872.7813,930.5781 Q871.4375,930.5781 870.75,931.6563 Q870.0625,932.7188 870.0625,934.8125 Q870.0625,936.9063 870.75,937.9844 Q871.4375,939.0469 872.7813,939.0469 Q873.4063,939.0469 874,938.7813 Q874.5938,938.5 875.2188,937.9219 L875.2188,940.6406 Z " fill="#000000"/><text fill="#000000" font-family="sans-serif" font-size="14" lengthAdjust="spacing" textLength="131" x="892.75" y="939.8467">ChestlikeContainer</text><line style="stroke:#181818;stroke-width:0.5;" x1="818.5" x2="1065.5" y1="951" y2="951"/><rect fill="none" height="6" style="stroke:#C82930;stroke-width:1.0;" width="6" x="825.5" y="961.6484"/><text fill="#000000" font-family="sans-serif" font-size="14" lengthAdjust="spacing" textLength="96" x="837.5" y="967.9951">boolean open</text><rect fill="none" height="6" style="stroke:#C82930;stroke-width:1.0;" width="6" x="825.5" y="977.9453"/><text fill="#000000" font-family="sans-serif" font-size="14" lengthAdjust="spacing" textLength="106" x="837.5" y="984.292">boolean locked</text><rect fill="none" height="6" style="stroke:#C82930;stroke-width:1.0;" width="6" x="825.5" y="994.2422"/><text fill="#000000" font-family="sans-serif" font-size="14" lengthAdjust="spacing" textLength="180" x="837.5" y="1000.5889">String unlockedWithItemId</text><rect fill="none" height="6" style="stroke:#C82930;stroke-width:1.0;" width="6" x="825.5" y="1010.5391"/><text fill="#000000" font-family="sans-serif" font-size="14" lengthAdjust="spacing" textLength="223" x="837.5" y="1016.8857">AbstractEntity unlockedWithItem</text><line style="stroke:#181818;stroke-width:0.5;" x1="818.5" x2="1065.5" y1="1024.1875" y2="1024.1875"/></g><!--MD5=[628d62ff04db27706aae81eca2ee29b7]
class SocketlikeContainer--><g id="elem_SocketlikeContainer"><rect codeLine="72" fill="#F1F1F1" height="96.8906" id="SocketlikeContainer" rx="2.5" ry="2.5" style="stroke:#181818;stroke-width:0.5;" width="175" x="237.5" y="927"/><ellipse cx="254.75" cy="943" fill="#ADD1B2" rx="11" ry="11" style="stroke:#181818;stroke-width:1.0;"/><path d="M257.7188,948.6406 Q257.1406,948.9375 256.5,949.0781 Q255.8594,949.2344 255.1563,949.2344 Q252.6563,949.2344 251.3281,947.5938 Q250.0156,945.9375 250.0156,942.8125 Q250.0156,939.6875 251.3281,938.0313 Q252.6563,936.375 255.1563,936.375 Q255.8594,936.375 256.5,936.5313 Q257.1563,936.6875 257.7188,936.9844 L257.7188,939.7031 Q257.0938,939.125 256.5,938.8594 Q255.9063,938.5781 255.2813,938.5781 Q253.9375,938.5781 253.25,939.6563 Q252.5625,940.7188 252.5625,942.8125 Q252.5625,944.9063 253.25,945.9844 Q253.9375,947.0469 255.2813,947.0469 Q255.9063,947.0469 256.5,946.7813 Q257.0938,946.5 257.7188,945.9219 L257.7188,948.6406 Z " fill="#000000"/><text fill="#000000" font-family="sans-serif" font-size="14" lengthAdjust="spacing" textLength="138" x="269.25" y="947.8467">SocketlikeContainer</text><line style="stroke:#181818;stroke-width:0.5;" x1="238.5" x2="411.5" y1="959" y2="959"/><rect fill="none" height="6" style="stroke:#C82930;stroke-width:1.0;" width="6" x="245.5" y="969.6484"/><text fill="#000000" font-family="sans-serif" font-size="14" lengthAdjust="spacing" textLength="131" x="257.5" y="975.9951">boolean itemInside</text><rect fill="none" height="6" style="stroke:#C82930;stroke-width:1.0;" width="6" x="245.5" y="985.9453"/><text fill="#000000" font-family="sans-serif" font-size="14" lengthAdjust="spacing" textLength="134" x="257.5" y="992.292">String eligibleItemId</text><rect fill="none" height="6" style="stroke:#C82930;stroke-width:1.0;" width="6" x="245.5" y="1002.2422"/><text fill="#000000" font-family="sans-serif" font-size="14" lengthAdjust="spacing" textLength="149" x="257.5" y="1008.5889">BasicItem eligibleItem</text><line style="stroke:#181818;stroke-width:0.5;" x1="238.5" x2="411.5" y1="1015.8906" y2="1015.8906"/></g><!--MD5=[4b2b6bed3a772436ed633c250a2f74b4]
class WearableContainer--><g id="elem_WearableContainer"><rect codeLine="78" fill="#F1F1F1" height="96.8906" id="WearableContainer" rx="2.5" ry="2.5" style="stroke:#181818;stroke-width:0.5;" width="163" x="619.5" y="927"/><ellipse cx="634.5" cy="943" fill="#ADD1B2" rx="11" ry="11" style="stroke:#181818;stroke-width:1.0;"/><path d="M637.4688,948.6406 Q636.8906,948.9375 636.25,949.0781 Q635.6094,949.2344 634.9063,949.2344 Q632.4063,949.2344 631.0781,947.5938 Q629.7656,945.9375 629.7656,942.8125 Q629.7656,939.6875 631.0781,938.0313 Q632.4063,936.375 634.9063,936.375 Q635.6094,936.375 636.25,936.5313 Q636.9063,936.6875 637.4688,936.9844 L637.4688,939.7031 Q636.8438,939.125 636.25,938.8594 Q635.6563,938.5781 635.0313,938.5781 Q633.6875,938.5781 633,939.6563 Q632.3125,940.7188 632.3125,942.8125 Q632.3125,944.9063 633,945.9844 Q633.6875,947.0469 635.0313,947.0469 Q635.6563,947.0469 636.25,946.7813 Q636.8438,946.5 637.4688,945.9219 L637.4688,948.6406 Z " fill="#000000"/><text fill="#000000" font-family="sans-serif" font-size="14" lengthAdjust="spacing" textLength="131" x="648.5" y="947.8467">WearableContainer</text><line style="stroke:#181818;stroke-width:0.5;" x1="620.5" x2="781.5" y1="959" y2="959"/><rect fill="none" height="6" style="stroke:#C82930;stroke-width:1.0;" width="6" x="627.5" y="969.6484"/><text fill="#000000" font-family="sans-serif" font-size="14" lengthAdjust="spacing" textLength="94" x="639.5" y="975.9951">boolean worn</text><rect fill="none" height="6" style="stroke:#C82930;stroke-width:1.0;" width="6" x="627.5" y="985.9453"/><text fill="#000000" font-family="sans-serif" font-size="14" lengthAdjust="spacing" textLength="125" x="639.5" y="992.292">boolean pickedUp</text><rect fill="none" height="6" style="stroke:#C82930;stroke-width:1.0;" width="6" x="627.5" y="1002.2422"/><text fill="#000000" font-family="sans-serif" font-size="14" lengthAdjust="spacing" textLength="83" x="639.5" y="1008.5889">int maxSlots</text><line style="stroke:#181818;stroke-width:0.5;" x1="620.5" x2="781.5" y1="1015.8906" y2="1015.8906"/></g><!--MD5=[f6206d2ec51ac58d808468fe0a74c9c8]
reverse link GameComponent to AbstractEntity--><g id="link_GameComponent_AbstractEntity"><path d="M386,190.42 C386,202.88 386,216.13 386,229.72 " fill="none" id="GameComponent-backto-AbstractEntity" style="stroke:#181818;stroke-width:1.0;"/><polygon fill="none" points="379,190.25,386,170.25,393,190.25,379,190.25" style="stroke:#181818;stroke-width:1.0;"/></g><!--MD5=[bfef2e9c944fc667d398ef81206cda32]
reverse link IPickupable to IWearable--><g id="link_IPickupable_IWearable"><path d="M868.3,469.7 C868.7,538.5 869.41,658.69 869.77,720.81 " fill="none" id="IPickupable-backto-IWearable" style="stroke:#181818;stroke-width:1.0;"/><polygon fill="none" points="861.3,469.34,868.18,449.3,875.3,469.26,861.3,469.34" style="stroke:#181818;stroke-width:1.0;"/></g><!--MD5=[5b8be5793ce753568857050ae128aacf]
reverse link AbstractEntity to AbstractContainer--><g id="link_AbstractEntity_AbstractContainer"><path d="M419.71,624.15 C421.93,637.77 424.11,651.07 426.17,663.7 " fill="none" id="AbstractEntity-backto-AbstractContainer" style="stroke:#181818;stroke-width:1.0;"/><polygon fill="none" points="412.74,624.9,416.42,604.03,426.55,622.64,412.74,624.9" style="stroke:#181818;stroke-width:1.0;"/></g><!--MD5=[6013175e394c65647752a7bab5b14884]
reverse link AbstractContainer to BasicContainer--><g id="link_AbstractContainer_BasicContainer"><path d="M482.36,878.12 C492.13,906.11 501.58,933.2 507.97,951.49 " fill="none" id="AbstractContainer-backto-BasicContainer" style="stroke:#181818;stroke-width:1.0;"/><polygon fill="none" points="475.73,880.38,475.75,859.19,488.95,875.77,475.73,880.38" style="stroke:#181818;stroke-width:1.0;"/></g><!--MD5=[c0b9a6e3223108de05b7edc20f36a736]
reverse link AbstractContainer to ChestlikeContainer--><g id="link_AbstractContainer_ChestlikeContainer"><path d="M735.12,866.7 C757.24,875.87 779.08,885.34 800,895 C815.65,902.22 831.9,910.52 847.58,918.96 " fill="none" id="AbstractContainer-backto-ChestlikeContainer" style="stroke:#181818;stroke-width:1.0;"/><polygon fill="none" points="732.34,873.13,716.48,859.07,737.64,860.17,732.34,873.13" style="stroke:#181818;stroke-width:1.0;"/></g><!--MD5=[915ef2b3558086efb75c7b11cbfef6ee]
reverse link IOpenable to ChestlikeContainer--><g id="link_IOpenable_ChestlikeContainer"><path d="M1053.66,468.87 C1038.32,551.18 1006.15,718.53 973,859 C968.37,878.6 962.8,899.93 957.67,918.86 " fill="none" id="IOpenable-backto-ChestlikeContainer" style="stroke:#181818;stroke-width:1.0;stroke-dasharray:7.0,7.0;"/><polygon fill="none" points="1046.79,467.54,1057.32,449.15,1060.55,470.09,1046.79,467.54" style="stroke:#181818;stroke-width:1.0;"/></g><!--MD5=[b9dceed335e2ac59bdb4b17285c2e3ca]
reverse link AbstractContainer to SocketlikeContainer--><g id="link_AbstractContainer_SocketlikeContainer"><path d="M378.89,876.85 C369.17,894.47 359.62,911.78 351.32,926.82 " fill="none" id="AbstractContainer-backto-SocketlikeContainer" style="stroke:#181818;stroke-width:1.0;"/><polygon fill="none" points="372.84,873.32,388.64,859.19,385.1,880.09,372.84,873.32" style="stroke:#181818;stroke-width:1.0;"/></g><!--MD5=[b4babef7094103efd3475e8d7c89e679]
reverse link AbstractContainer to WearableContainer--><g id="link_AbstractContainer_WearableContainer"><path d="M575.63,871.88 C599.23,891.2 622.65,910.37 642.75,926.82 " fill="none" id="AbstractContainer-backto-WearableContainer" style="stroke:#181818;stroke-width:1.0;"/><polygon fill="none" points="571.17,877.28,560.13,859.19,580.04,866.45,571.17,877.28" style="stroke:#181818;stroke-width:1.0;"/></g><!--MD5=[3f9eb20d7a4a453e654aeee7946d162e]
reverse link IWearable to WearableContainer--><g id="link_IWearable_WearableContainer"><path d="M825.65,818.13 C798.77,851.85 764.83,894.43 739.15,926.64 " fill="none" id="IWearable-backto-WearableContainer" style="stroke:#181818;stroke-width:1.0;stroke-dasharray:7.0,7.0;"/><polygon fill="none" points="820.27,813.65,838.21,802.38,831.22,822.38,820.27,813.65" style="stroke:#181818;stroke-width:1.0;"/></g><!--MD5=[32e47b54f0b78da63a17b790693503d1]
@startuml
package "entity container" #DDDDDD {
    abstract class GameComponent {
        - String id
        - String name
        - String description
        + {abstract} void saveOnDb()
        # void setKnownValuesOnStatement(PreparedStatement stm)
    }
    
    abstract class AbstractEntity extends GameComponent {
        - Set<String> alias
        - GameComponent parent
        - PlayableRoom closestRoomParent
        - List<ObjectEvent> events
        - List<String> requiredWearedItemsIdToInteract
        - List<IWearable> requiredWearedItemsToInteract
        - String failedInteractionMessage
        - boolean destroyFromInventory
        + void lookAt()
        + void processReferences(Multimap<String, AbstractEntity> objects, List<AbstractRoom> rooms)
        # void triggerEvent(EventType type)
        # boolean canInteract()
        # void loadLocation(ResultSet resultSet, List<AbstractRoom> allRooms, Inventory inventory)
        - void processRoomParent(List<AbstractRoom> rooms)
        - void processEventReferences(Multimap<String, AbstractEntity> objects, List<AbstractRoom> rooms)
        - void loadObjEvents()
        - void saveEventsOnDB()
        - void saveAliasesOnDB()
        - void saveRequiredWearedItemsOnDB()
        - void saveExternalsOnDB()
    }
    
    
    together {
        interface IPickupable {
            + ActionState pickup()
        }
        
        interface IWearable extends IPickupable {
            + ActionState wear()
            + ActionState unwear()
        }
        
        interface IOpenable {
            + ActionState open()
        }
    }
    
    abstract class AbstractContainer extends AbstractEntity {
        # boolean contentRevealed
        - List<AbstractEntity> list
        - boolean forFluids
        + void add(AbstractEntity object)
        + void removeObject(AbstractEntity object)
        + StringBuilder getContentString()
        + ActionState insert(AbstractEntity obj, Inventory inventory)
        + {static} List<AbstractEntity> getAllObjectsInside(AbstractEntity obj)
        + {static} void addObjectToContainerId(AbstractEntity object, List<AbstractEntity> list, String id)
    }
    
    together {
        class BasicContainer extends AbstractContainer {
        }
        
        class ChestlikeContainer extends AbstractContainer implements IOpenable {
            - boolean open
            - boolean locked
            - String unlockedWithItemId
            - AbstractEntity unlockedWithItem
        }
        
        class SocketlikeContainer extends AbstractContainer {
            - boolean itemInside
            - String eligibleItemId
            - BasicItem eligibleItem
        }
        
        class WearableContainer extends AbstractContainer implements IWearable{
            - boolean worn
            - boolean pickedUp
            - int maxSlots
        }
    }
}
@enduml

PlantUML version 1.2022.7(Mon Aug 22 19:01:30 CEST 2022)
(GPL source distribution)
Java Runtime: OpenJDK Runtime Environment
JVM: OpenJDK 64-Bit Server VM
Default Encoding: UTF-8
Language: it
Country: IT
--></g></svg>