<?xml version="1.0" encoding="UTF-8" standalone="no"?><svg xmlns="http://www.w3.org/2000/svg" xmlns:xlink="http://www.w3.org/1999/xlink" contentStyleType="text/css" height="1003px" preserveAspectRatio="none" style="width:964px;height:1003px;background:#FFFFFF;" version="1.1" viewBox="0 0 964 1003" width="964px" zoomAndPan="magnify"><defs/><g><!--MD5=[09f775966260471f7910223dffb32335]
cluster entity doorlike--><g id="cluster_entity doorlike"><path d="M8.5,6 L123.5,6 A3.75,3.75 0 0 1 126,8.5 L133,28.2969 L954.5,28.2969 A2.5,2.5 0 0 1 957,30.7969 L957,993.5 A2.5,2.5 0 0 1 954.5,996 L8.5,996 A2.5,2.5 0 0 1 6,993.5 L6,8.5 A2.5,2.5 0 0 1 8.5,6 " fill="#DDDDDD" style="stroke:#000000;stroke-width:1.5;"/><line style="stroke:#000000;stroke-width:1.5;" x1="6" x2="133" y1="28.2969" y2="28.2969"/><text fill="#000000" font-family="sans-serif" font-size="14" font-weight="bold" lengthAdjust="spacing" textLength="114" x="10" y="20.9951">entity doorlike</text></g><!--MD5=[299b79098022c64b03f396ac59ef46ab]
class GameComponent--><g id="elem_GameComponent"><rect codeLine="2" fill="#F1F1F1" height="129.4844" id="GameComponent" rx="2.5" ry="2.5" style="stroke:#181818;stroke-width:0.5;" width="440" x="357" y="41"/><ellipse cx="511.25" cy="57" fill="#A9DCDF" rx="11" ry="11" style="stroke:#181818;stroke-width:1.0;"/><path d="M511.3594,52.3438 L510.2031,57.4219 L512.5313,57.4219 L511.3594,52.3438 Z M509.875,50.1094 L512.8594,50.1094 L516.2188,62.5 L513.7656,62.5 L513,59.4375 L509.7188,59.4375 L508.9688,62.5 L506.5313,62.5 L509.875,50.1094 Z " fill="#000000"/><text fill="#000000" font-family="sans-serif" font-size="14" font-style="italic" lengthAdjust="spacing" textLength="123" x="531.75" y="61.8467">GameComponent</text><line style="stroke:#181818;stroke-width:0.5;" x1="358" x2="796" y1="73" y2="73"/><rect fill="none" height="6" style="stroke:#C82930;stroke-width:1.0;" width="6" x="365" y="83.6484"/><text fill="#000000" font-family="sans-serif" font-size="14" lengthAdjust="spacing" textLength="56" x="377" y="89.9951">String id</text><rect fill="none" height="6" style="stroke:#C82930;stroke-width:1.0;" width="6" x="365" y="99.9453"/><text fill="#000000" font-family="sans-serif" font-size="14" lengthAdjust="spacing" textLength="83" x="377" y="106.292">String name</text><rect fill="none" height="6" style="stroke:#C82930;stroke-width:1.0;" width="6" x="365" y="116.2422"/><text fill="#000000" font-family="sans-serif" font-size="14" lengthAdjust="spacing" textLength="121" x="377" y="122.5889">String description</text><line style="stroke:#181818;stroke-width:0.5;" x1="358" x2="796" y1="129.8906" y2="129.8906"/><ellipse cx="368" cy="143.5391" fill="#84BE84" rx="3" ry="3" style="stroke:#038048;stroke-width:1.0;"/><text fill="#000000" font-family="sans-serif" font-size="14" font-style="italic" lengthAdjust="spacing" textLength="115" x="377" y="146.8857">void saveOnDb()</text><polygon fill="#FFFF44" points="368,154.8359,372,158.8359,368,162.8359,364,158.8359" style="stroke:#B38D22;stroke-width:1.0;"/><text fill="#000000" font-family="sans-serif" font-size="14" lengthAdjust="spacing" textLength="414" x="377" y="163.1826">void setKnownValuesOnStatement(PreparedStatement stm)</text></g><!--MD5=[f5795bcb344c90704c3bd8ee73903a6a]
class AbstractEntity--><g id="elem_AbstractEntity"><rect codeLine="10" fill="#F1F1F1" height="373.9375" id="AbstractEntity" rx="2.5" ry="2.5" style="stroke:#181818;stroke-width:0.5;" width="728" x="213" y="230"/><ellipse cx="524.75" cy="246" fill="#A9DCDF" rx="11" ry="11" style="stroke:#181818;stroke-width:1.0;"/><path d="M524.8594,241.3438 L523.7031,246.4219 L526.0313,246.4219 L524.8594,241.3438 Z M523.375,239.1094 L526.3594,239.1094 L529.7188,251.5 L527.2656,251.5 L526.5,248.4375 L523.2188,248.4375 L522.4688,251.5 L520.0313,251.5 L523.375,239.1094 Z " fill="#000000"/><text fill="#000000" font-family="sans-serif" font-size="14" font-style="italic" lengthAdjust="spacing" textLength="96" x="545.25" y="250.8467">AbstractEntity</text><line style="stroke:#181818;stroke-width:0.5;" x1="214" x2="940" y1="262" y2="262"/><rect fill="none" height="6" style="stroke:#C82930;stroke-width:1.0;" width="6" x="221" y="272.6484"/><text fill="#000000" font-family="sans-serif" font-size="14" lengthAdjust="spacing" textLength="121" x="233" y="278.9951">Set&lt;String&gt; alias</text><rect fill="none" height="6" style="stroke:#C82930;stroke-width:1.0;" width="6" x="221" y="288.9453"/><text fill="#000000" font-family="sans-serif" font-size="14" lengthAdjust="spacing" textLength="172" x="233" y="295.292">GameComponent parent</text><rect fill="none" height="6" style="stroke:#C82930;stroke-width:1.0;" width="6" x="221" y="305.2422"/><text fill="#000000" font-family="sans-serif" font-size="14" lengthAdjust="spacing" textLength="237" x="233" y="311.5889">PlayableRoom closestRoomParent</text><rect fill="none" height="6" style="stroke:#C82930;stroke-width:1.0;" width="6" x="221" y="321.5391"/><text fill="#000000" font-family="sans-serif" font-size="14" lengthAdjust="spacing" textLength="182" x="233" y="327.8857">List&lt;ObjectEvent&gt; events</text><rect fill="none" height="6" style="stroke:#C82930;stroke-width:1.0;" width="6" x="221" y="337.8359"/><text fill="#000000" font-family="sans-serif" font-size="14" lengthAdjust="spacing" textLength="322" x="233" y="344.1826">List&lt;String&gt; requiredWearedItemsIdToInteract</text><rect fill="none" height="6" style="stroke:#C82930;stroke-width:1.0;" width="6" x="221" y="354.1328"/><text fill="#000000" font-family="sans-serif" font-size="14" lengthAdjust="spacing" textLength="337" x="233" y="360.4795">List&lt;IWearable&gt; requiredWearedItemsToInteract</text><rect fill="none" height="6" style="stroke:#C82930;stroke-width:1.0;" width="6" x="221" y="370.4297"/><text fill="#000000" font-family="sans-serif" font-size="14" lengthAdjust="spacing" textLength="216" x="233" y="376.7764">String failedInteractionMessage</text><rect fill="none" height="6" style="stroke:#C82930;stroke-width:1.0;" width="6" x="221" y="386.7266"/><text fill="#000000" font-family="sans-serif" font-size="14" lengthAdjust="spacing" textLength="210" x="233" y="393.0732">boolean destroyFromInventory</text><line style="stroke:#181818;stroke-width:0.5;" x1="214" x2="940" y1="400.375" y2="400.375"/><ellipse cx="224" cy="414.0234" fill="#84BE84" rx="3" ry="3" style="stroke:#038048;stroke-width:1.0;"/><text fill="#000000" font-family="sans-serif" font-size="14" lengthAdjust="spacing" textLength="85" x="233" y="417.3701">void lookAt()</text><ellipse cx="224" cy="430.3203" fill="#84BE84" rx="3" ry="3" style="stroke:#038048;stroke-width:1.0;"/><text fill="#000000" font-family="sans-serif" font-size="14" lengthAdjust="spacing" textLength="663" x="233" y="433.667">void processReferences(Multimap&lt;String, AbstractEntity&gt; objects, List&lt;AbstractRoom&gt; rooms)</text><polygon fill="#FFFF44" points="224,441.6172,228,445.6172,224,449.6172,220,445.6172" style="stroke:#B38D22;stroke-width:1.0;"/><text fill="#000000" font-family="sans-serif" font-size="14" lengthAdjust="spacing" textLength="233" x="233" y="449.9639">void triggerEvent(EventType type)</text><polygon fill="#FFFF44" points="224,457.9141,228,461.9141,224,465.9141,220,461.9141" style="stroke:#B38D22;stroke-width:1.0;"/><text fill="#000000" font-family="sans-serif" font-size="14" lengthAdjust="spacing" textLength="147" x="233" y="466.2607">boolean canInteract()</text><polygon fill="#FFFF44" points="224,474.2109,228,478.2109,224,482.2109,220,478.2109" style="stroke:#B38D22;stroke-width:1.0;"/><text fill="#000000" font-family="sans-serif" font-size="14" lengthAdjust="spacing" textLength="620" x="233" y="482.5576">void loadLocation(ResultSet resultSet, List&lt;AbstractRoom&gt; allRooms, Inventory inventory)</text><rect fill="#F24D5C" height="6" style="stroke:#C82930;stroke-width:1.0;" width="6" x="221" y="492.5078"/><text fill="#000000" font-family="sans-serif" font-size="14" lengthAdjust="spacing" textLength="377" x="233" y="498.8545">void processRoomParent(List&lt;AbstractRoom&gt; rooms)</text><rect fill="#F24D5C" height="6" style="stroke:#C82930;stroke-width:1.0;" width="6" x="221" y="508.8047"/><text fill="#000000" font-family="sans-serif" font-size="14" lengthAdjust="spacing" textLength="702" x="233" y="515.1514">void processEventReferences(Multimap&lt;String, AbstractEntity&gt; objects, List&lt;AbstractRoom&gt; rooms)</text><rect fill="#F24D5C" height="6" style="stroke:#C82930;stroke-width:1.0;" width="6" x="221" y="525.1016"/><text fill="#000000" font-family="sans-serif" font-size="14" lengthAdjust="spacing" textLength="141" x="233" y="531.4482">void loadObjEvents()</text><rect fill="#F24D5C" height="6" style="stroke:#C82930;stroke-width:1.0;" width="6" x="221" y="541.3984"/><text fill="#000000" font-family="sans-serif" font-size="14" lengthAdjust="spacing" textLength="162" x="233" y="547.7451">void saveEventsOnDB()</text><rect fill="#F24D5C" height="6" style="stroke:#C82930;stroke-width:1.0;" width="6" x="221" y="557.6953"/><text fill="#000000" font-family="sans-serif" font-size="14" lengthAdjust="spacing" textLength="163" x="233" y="564.042">void saveAliasesOnDB()</text><rect fill="#F24D5C" height="6" style="stroke:#C82930;stroke-width:1.0;" width="6" x="221" y="573.9922"/><text fill="#000000" font-family="sans-serif" font-size="14" lengthAdjust="spacing" textLength="269" x="233" y="580.3389">void saveRequiredWearedItemsOnDB()</text><rect fill="#F24D5C" height="6" style="stroke:#C82930;stroke-width:1.0;" width="6" x="221" y="590.2891"/><text fill="#000000" font-family="sans-serif" font-size="14" lengthAdjust="spacing" textLength="178" x="233" y="596.6357">void saveExternalsOnDB()</text></g><!--MD5=[10f0bc30af2cfecf3ef477b487a33739]
class IOpenable--><g id="elem_IOpenable"><rect codeLine="35" fill="#F1F1F1" height="64.2969" id="IOpenable" rx="2.5" ry="2.5" style="stroke:#181818;stroke-width:0.5;" width="155" x="22.5" y="385"/><ellipse cx="60.9" cy="401" fill="#B4A7E5" rx="11" ry="11" style="stroke:#181818;stroke-width:1.0;"/><path d="M56.8219,396.7656 L56.8219,394.6094 L64.2125,394.6094 L64.2125,396.7656 L61.7438,396.7656 L61.7438,404.8438 L64.2125,404.8438 L64.2125,407 L56.8219,407 L56.8219,404.8438 L59.2906,404.8438 L59.2906,396.7656 L56.8219,396.7656 Z " fill="#000000"/><text fill="#000000" font-family="sans-serif" font-size="14" font-style="italic" lengthAdjust="spacing" textLength="71" x="80.1" y="405.8467">IOpenable</text><line style="stroke:#181818;stroke-width:0.5;" x1="23.5" x2="176.5" y1="417" y2="417"/><line style="stroke:#181818;stroke-width:0.5;" x1="23.5" x2="176.5" y1="425" y2="425"/><ellipse cx="33.5" cy="438.6484" fill="#84BE84" rx="3" ry="3" style="stroke:#038048;stroke-width:1.0;"/><text fill="#000000" font-family="sans-serif" font-size="14" lengthAdjust="spacing" textLength="129" x="42.5" y="441.9951">ActionState open()</text></g><!--MD5=[ff61424299de7fbd1b7bbdfe7c644dfd]
class Door--><g id="elem_Door"><rect codeLine="40" fill="#F1F1F1" height="145.7813" id="Door" rx="2.5" ry="2.5" style="stroke:#181818;stroke-width:0.5;" width="249" x="98.5" y="737"/><ellipse cx="201.75" cy="753" fill="#ADD1B2" rx="11" ry="11" style="stroke:#181818;stroke-width:1.0;"/><path d="M204.7188,758.6406 Q204.1406,758.9375 203.5,759.0781 Q202.8594,759.2344 202.1563,759.2344 Q199.6563,759.2344 198.3281,757.5938 Q197.0156,755.9375 197.0156,752.8125 Q197.0156,749.6875 198.3281,748.0313 Q199.6563,746.375 202.1563,746.375 Q202.8594,746.375 203.5,746.5313 Q204.1563,746.6875 204.7188,746.9844 L204.7188,749.7031 Q204.0938,749.125 203.5,748.8594 Q202.9063,748.5781 202.2813,748.5781 Q200.9375,748.5781 200.25,749.6563 Q199.5625,750.7188 199.5625,752.8125 Q199.5625,754.9063 200.25,755.9844 Q200.9375,757.0469 202.2813,757.0469 Q202.9063,757.0469 203.5,756.7813 Q204.0938,756.5 204.7188,755.9219 L204.7188,758.6406 Z " fill="#000000"/><text fill="#000000" font-family="sans-serif" font-size="14" lengthAdjust="spacing" textLength="34" x="222.25" y="757.8467">Door</text><line style="stroke:#181818;stroke-width:0.5;" x1="99.5" x2="346.5" y1="769" y2="769"/><rect fill="none" height="6" style="stroke:#C82930;stroke-width:1.0;" width="6" x="106.5" y="779.6484"/><text fill="#000000" font-family="sans-serif" font-size="14" lengthAdjust="spacing" textLength="96" x="118.5" y="785.9951">boolean open</text><rect fill="none" height="6" style="stroke:#C82930;stroke-width:1.0;" width="6" x="106.5" y="795.9453"/><text fill="#000000" font-family="sans-serif" font-size="14" lengthAdjust="spacing" textLength="106" x="118.5" y="802.292">boolean locked</text><rect fill="none" height="6" style="stroke:#C82930;stroke-width:1.0;" width="6" x="106.5" y="812.2422"/><text fill="#000000" font-family="sans-serif" font-size="14" lengthAdjust="spacing" textLength="180" x="118.5" y="818.5889">String unlockedWithItemId</text><rect fill="none" height="6" style="stroke:#C82930;stroke-width:1.0;" width="6" x="106.5" y="828.5391"/><text fill="#000000" font-family="sans-serif" font-size="14" lengthAdjust="spacing" textLength="223" x="118.5" y="834.8857">AbstractEntity unlockedWithItem</text><rect fill="none" height="6" style="stroke:#C82930;stroke-width:1.0;" width="6" x="106.5" y="844.8359"/><text fill="#000000" font-family="sans-serif" font-size="14" lengthAdjust="spacing" textLength="152" x="118.5" y="851.1826">String blockedRoomId</text><rect fill="none" height="6" style="stroke:#C82930;stroke-width:1.0;" width="6" x="106.5" y="861.1328"/><text fill="#000000" font-family="sans-serif" font-size="14" lengthAdjust="spacing" textLength="198" x="118.5" y="867.4795">AbstractRoom blockedRoom</text><line style="stroke:#181818;stroke-width:0.5;" x1="99.5" x2="346.5" y1="874.7813" y2="874.7813"/></g><!--MD5=[7be8db723a49159604666d6131fb69f6]
class InvisibleWall--><g id="elem_InvisibleWall"><rect codeLine="49" fill="#F1F1F1" height="292.4531" id="InvisibleWall" rx="2.5" ry="2.5" style="stroke:#181818;stroke-width:0.5;" width="271" x="382.5" y="664"/><ellipse cx="473.25" cy="680" fill="#ADD1B2" rx="11" ry="11" style="stroke:#181818;stroke-width:1.0;"/><path d="M476.2188,685.6406 Q475.6406,685.9375 475,686.0781 Q474.3594,686.2344 473.6563,686.2344 Q471.1563,686.2344 469.8281,684.5938 Q468.5156,682.9375 468.5156,679.8125 Q468.5156,676.6875 469.8281,675.0313 Q471.1563,673.375 473.6563,673.375 Q474.3594,673.375 475,673.5313 Q475.6563,673.6875 476.2188,673.9844 L476.2188,676.7031 Q475.5938,676.125 475,675.8594 Q474.4063,675.5781 473.7813,675.5781 Q472.4375,675.5781 471.75,676.6563 Q471.0625,677.7188 471.0625,679.8125 Q471.0625,681.9063 471.75,682.9844 Q472.4375,684.0469 473.7813,684.0469 Q474.4063,684.0469 475,683.7813 Q475.5938,683.5 476.2188,682.9219 L476.2188,685.6406 Z " fill="#000000"/><text fill="#000000" font-family="sans-serif" font-size="14" lengthAdjust="spacing" textLength="81" x="493.75" y="684.8467">InvisibleWall</text><line style="stroke:#181818;stroke-width:0.5;" x1="383.5" x2="652.5" y1="696" y2="696"/><rect fill="none" height="6" style="stroke:#C82930;stroke-width:1.0;" width="6" x="390.5" y="706.6484"/><text fill="#000000" font-family="sans-serif" font-size="14" lengthAdjust="spacing" textLength="106" x="402.5" y="712.9951">boolean locked</text><rect fill="none" height="6" style="stroke:#C82930;stroke-width:1.0;" width="6" x="390.5" y="722.9453"/><text fill="#000000" font-family="sans-serif" font-size="14" lengthAdjust="spacing" textLength="245" x="402.5" y="729.292">String trespassingWhenLockedText</text><rect fill="none" height="6" style="stroke:#C82930;stroke-width:1.0;" width="6" x="390.5" y="739.2422"/><text fill="#000000" font-family="sans-serif" font-size="14" lengthAdjust="spacing" textLength="152" x="402.5" y="745.5889">String blockedRoomId</text><rect fill="none" height="6" style="stroke:#C82930;stroke-width:1.0;" width="6" x="390.5" y="755.5391"/><text fill="#000000" font-family="sans-serif" font-size="14" lengthAdjust="spacing" textLength="153" x="402.5" y="761.8857">boolean northBlocked</text><rect fill="none" height="6" style="stroke:#C82930;stroke-width:1.0;" width="6" x="390.5" y="771.8359"/><text fill="#000000" font-family="sans-serif" font-size="14" lengthAdjust="spacing" textLength="156" x="402.5" y="778.1826">boolean southBlocked</text><rect fill="none" height="6" style="stroke:#C82930;stroke-width:1.0;" width="6" x="390.5" y="788.1328"/><text fill="#000000" font-family="sans-serif" font-size="14" lengthAdjust="spacing" textLength="146" x="402.5" y="794.4795">boolean eastBlocked</text><rect fill="none" height="6" style="stroke:#C82930;stroke-width:1.0;" width="6" x="390.5" y="804.4297"/><text fill="#000000" font-family="sans-serif" font-size="14" lengthAdjust="spacing" textLength="149" x="402.5" y="810.7764">boolean westBlocked</text><rect fill="none" height="6" style="stroke:#C82930;stroke-width:1.0;" width="6" x="390.5" y="820.7266"/><text fill="#000000" font-family="sans-serif" font-size="14" lengthAdjust="spacing" textLength="183" x="402.5" y="827.0732">boolean northEastBlocked</text><rect fill="none" height="6" style="stroke:#C82930;stroke-width:1.0;" width="6" x="390.5" y="837.0234"/><text fill="#000000" font-family="sans-serif" font-size="14" lengthAdjust="spacing" textLength="188" x="402.5" y="843.3701">boolean northWestBlocked</text><rect fill="none" height="6" style="stroke:#C82930;stroke-width:1.0;" width="6" x="390.5" y="853.3203"/><text fill="#000000" font-family="sans-serif" font-size="14" lengthAdjust="spacing" textLength="186" x="402.5" y="859.667">boolean southEastBlocked</text><rect fill="none" height="6" style="stroke:#C82930;stroke-width:1.0;" width="6" x="390.5" y="869.6172"/><text fill="#000000" font-family="sans-serif" font-size="14" lengthAdjust="spacing" textLength="191" x="402.5" y="875.9639">boolean southWestBlocked</text><rect fill="none" height="6" style="stroke:#C82930;stroke-width:1.0;" width="6" x="390.5" y="885.9141"/><text fill="#000000" font-family="sans-serif" font-size="14" lengthAdjust="spacing" textLength="134" x="402.5" y="892.2607">boolean upBlocked</text><rect fill="none" height="6" style="stroke:#C82930;stroke-width:1.0;" width="6" x="390.5" y="902.2109"/><text fill="#000000" font-family="sans-serif" font-size="14" lengthAdjust="spacing" textLength="154" x="402.5" y="908.5576">boolean downBlocked</text><line style="stroke:#181818;stroke-width:0.5;" x1="383.5" x2="652.5" y1="915.8594" y2="915.8594"/><ellipse cx="393.5" cy="929.5078" fill="#84BE84" rx="3" ry="3" style="stroke:#038048;stroke-width:1.0;"/><text fill="#000000" font-family="sans-serif" font-size="14" lengthAdjust="spacing" textLength="196" x="402.5" y="932.8545">void processRequirements()</text><ellipse cx="393.5" cy="945.8047" fill="#84BE84" rx="3" ry="3" style="stroke:#038048;stroke-width:1.0;"/><text fill="#000000" font-family="sans-serif" font-size="14" lengthAdjust="spacing" textLength="238" x="402.5" y="949.1514">boolean isBlocking(Type direction)</text></g><!--MD5=[89f4e3b0d91db63ce71b0c20c10ab879]
class UnopenableDoor--><g id="elem_UnopenableDoor"><rect codeLine="67" fill="#F1F1F1" height="64.2969" id="UnopenableDoor" rx="2.5" ry="2.5" style="stroke:#181818;stroke-width:0.5;" width="175" x="688.5" y="778"/><ellipse cx="714.75" cy="794" fill="#ADD1B2" rx="11" ry="11" style="stroke:#181818;stroke-width:1.0;"/><path d="M717.7188,799.6406 Q717.1406,799.9375 716.5,800.0781 Q715.8594,800.2344 715.1563,800.2344 Q712.6563,800.2344 711.3281,798.5938 Q710.0156,796.9375 710.0156,793.8125 Q710.0156,790.6875 711.3281,789.0313 Q712.6563,787.375 715.1563,787.375 Q715.8594,787.375 716.5,787.5313 Q717.1563,787.6875 717.7188,787.9844 L717.7188,790.7031 Q717.0938,790.125 716.5,789.8594 Q715.9063,789.5781 715.2813,789.5781 Q713.9375,789.5781 713.25,790.6563 Q712.5625,791.7188 712.5625,793.8125 Q712.5625,795.9063 713.25,796.9844 Q713.9375,798.0469 715.2813,798.0469 Q715.9063,798.0469 716.5,797.7813 Q717.0938,797.5 717.7188,796.9219 L717.7188,799.6406 Z " fill="#000000"/><text fill="#000000" font-family="sans-serif" font-size="14" lengthAdjust="spacing" textLength="118" x="731.25" y="798.8467">UnopenableDoor</text><line style="stroke:#181818;stroke-width:0.5;" x1="689.5" x2="862.5" y1="810" y2="810"/><rect fill="none" height="6" style="stroke:#C82930;stroke-width:1.0;" width="6" x="696.5" y="820.6484"/><text fill="#000000" font-family="sans-serif" font-size="14" lengthAdjust="spacing" textLength="149" x="708.5" y="826.9951">String openEventText</text><line style="stroke:#181818;stroke-width:0.5;" x1="689.5" x2="862.5" y1="834.2969" y2="834.2969"/></g><!--MD5=[f6206d2ec51ac58d808468fe0a74c9c8]
reverse link GameComponent to AbstractEntity--><g id="link_GameComponent_AbstractEntity"><path d="M577,190.42 C577,202.88 577,216.13 577,229.72 " fill="none" id="GameComponent-backto-AbstractEntity" style="stroke:#181818;stroke-width:1.0;"/><polygon fill="none" points="570,190.25,577,170.25,584,190.25,570,190.25" style="stroke:#181818;stroke-width:1.0;"/></g><!--MD5=[f679b938fce1dd8a88a57f1d8aafb285]
reverse link AbstractEntity to Door--><g id="link_AbstractEntity_Door"><path d="M383.97,619.03 C377.54,626.08 371.2,633.08 365,640 C337.13,671.11 307.25,706.37 282.12,736.6 " fill="none" id="AbstractEntity-backto-Door" style="stroke:#181818;stroke-width:1.0;"/><polygon fill="none" points="379.04,614.04,397.71,604.03,389.36,623.5,379.04,614.04" style="stroke:#181818;stroke-width:1.0;"/></g><!--MD5=[f83388a2ed229cf7e4ee4183b014eea0]
reverse link IOpenable to Door--><g id="link_IOpenable_Door"><path d="M115.83,468.33 C137.29,536.53 175.73,658.72 200.26,736.72 " fill="none" id="IOpenable-backto-Door" style="stroke:#181818;stroke-width:1.0;stroke-dasharray:7.0,7.0;"/><polygon fill="none" points="109.08,470.19,109.75,449.01,122.43,465.99,109.08,470.19" style="stroke:#181818;stroke-width:1.0;"/></g><!--MD5=[e2a2ec0f01e3419b69722f9f14353c77]
reverse link AbstractEntity to InvisibleWall--><g id="link_AbstractEntity_InvisibleWall"><path d="M545.94,623.83 C543.91,637.32 541.88,650.74 539.9,663.84 " fill="none" id="AbstractEntity-backto-InvisibleWall" style="stroke:#181818;stroke-width:1.0;"/><polygon fill="none" points="539.02,622.78,548.93,604.05,552.86,624.87,539.02,622.78" style="stroke:#181818;stroke-width:1.0;"/></g><!--MD5=[11ba1af801484eacf5fca57c85f7f95f]
reverse link AbstractEntity to UnopenableDoor--><g id="link_AbstractEntity_UnopenableDoor"><path d="M680.88,622.11 C711.89,683.04 742.33,742.85 760.13,777.81 " fill="none" id="AbstractEntity-backto-UnopenableDoor" style="stroke:#181818;stroke-width:1.0;"/><polygon fill="none" points="674.53,625.05,671.69,604.05,687,618.7,674.53,625.05" style="stroke:#181818;stroke-width:1.0;"/></g><!--MD5=[1103df691fa397efc1600525c48d522b]
@startuml
package "entity doorlike" #DDDDDD {
    abstract class GameComponent {
        - String id
        - String name
        - String description
        + {abstract} void saveOnDb()
        # void setKnownValuesOnStatement(PreparedStatement stm)
    }
    
    abstract class AbstractEntity extends GameComponent {
        - Set<String> alias
        - GameComponent parent
        - PlayableRoom closestRoomParent
        - List<ObjectEvent> events
        - List<String> requiredWearedItemsIdToInteract
        - List<IWearable> requiredWearedItemsToInteract
        - String failedInteractionMessage
        - boolean destroyFromInventory
        + void lookAt()
        + void processReferences(Multimap<String, AbstractEntity> objects, List<AbstractRoom> rooms)
        # void triggerEvent(EventType type)
        # boolean canInteract()
        # void loadLocation(ResultSet resultSet, List<AbstractRoom> allRooms, Inventory inventory)
        - void processRoomParent(List<AbstractRoom> rooms)
        - void processEventReferences(Multimap<String, AbstractEntity> objects, List<AbstractRoom> rooms)
        - void loadObjEvents()
        - void saveEventsOnDB()
        - void saveAliasesOnDB()
        - void saveRequiredWearedItemsOnDB()
        - void saveExternalsOnDB()
    }
    
    
    
    interface IOpenable {
        + ActionState open()
    }
    
    together {
        class Door extends AbstractEntity implements IOpenable {
            - boolean open
            - boolean locked
            - String unlockedWithItemId
            - AbstractEntity unlockedWithItem
            - String blockedRoomId
            - AbstractRoom blockedRoom
        }
        
        class InvisibleWall extends AbstractEntity {
            - boolean locked
            - String trespassingWhenLockedText
            - String blockedRoomId
            - boolean northBlocked
            - boolean southBlocked
            - boolean eastBlocked
            - boolean westBlocked
            - boolean northEastBlocked
            - boolean northWestBlocked
            - boolean southEastBlocked
            - boolean southWestBlocked
            - boolean upBlocked
            - boolean downBlocked
            + void processRequirements()
            + boolean isBlocking(Type direction)
        }
        
        class UnopenableDoor extends AbstractEntity {
            - String openEventText
        }
    }
}
@enduml

PlantUML version 1.2022.7(Mon Aug 22 19:01:30 CEST 2022)
(GPL source distribution)
Java Runtime: OpenJDK Runtime Environment
JVM: OpenJDK 64-Bit Server VM
Default Encoding: UTF-8
Language: it
Country: IT
--></g></svg>