<?xml version="1.0" encoding="UTF-8" standalone="no"?><svg xmlns="http://www.w3.org/2000/svg" xmlns:xlink="http://www.w3.org/1999/xlink" contentStyleType="text/css" height="792px" preserveAspectRatio="none" style="width:1083px;height:792px;background:#FFFFFF;" version="1.1" viewBox="0 0 1083 792" width="1083px" zoomAndPan="magnify"><defs/><g><!--MD5=[cf97ca22df7fddddbb9546e2f5d69590]
cluster entity humanoid--><g id="cluster_entity humanoid"><path d="M8.5,6 L136.5,6 A3.75,3.75 0 0 1 139,8.5 L146,28.2969 L1073.5,28.2969 A2.5,2.5 0 0 1 1076,30.7969 L1076,782.5 A2.5,2.5 0 0 1 1073.5,785 L8.5,785 A2.5,2.5 0 0 1 6,782.5 L6,8.5 A2.5,2.5 0 0 1 8.5,6 " fill="#DDDDDD" style="stroke:#000000;stroke-width:1.5;"/><line style="stroke:#000000;stroke-width:1.5;" x1="6" x2="146" y1="28.2969" y2="28.2969"/><text fill="#000000" font-family="sans-serif" font-size="14" font-weight="bold" lengthAdjust="spacing" textLength="127" x="10" y="20.9951">entity humanoid</text></g><!--MD5=[299b79098022c64b03f396ac59ef46ab]
class GameComponent--><g id="elem_GameComponent"><rect codeLine="2" fill="#F1F1F1" height="129.4844" id="GameComponent" rx="2.5" ry="2.5" style="stroke:#181818;stroke-width:0.5;" width="440" x="166" y="41"/><ellipse cx="320.25" cy="57" fill="#A9DCDF" rx="11" ry="11" style="stroke:#181818;stroke-width:1.0;"/><path d="M320.3594,52.3438 L319.2031,57.4219 L321.5313,57.4219 L320.3594,52.3438 Z M318.875,50.1094 L321.8594,50.1094 L325.2188,62.5 L322.7656,62.5 L322,59.4375 L318.7188,59.4375 L317.9688,62.5 L315.5313,62.5 L318.875,50.1094 Z " fill="#000000"/><text fill="#000000" font-family="sans-serif" font-size="14" font-style="italic" lengthAdjust="spacing" textLength="123" x="340.75" y="61.8467">GameComponent</text><line style="stroke:#181818;stroke-width:0.5;" x1="167" x2="605" y1="73" y2="73"/><rect fill="none" height="6" style="stroke:#C82930;stroke-width:1.0;" width="6" x="174" y="83.6484"/><text fill="#000000" font-family="sans-serif" font-size="14" lengthAdjust="spacing" textLength="56" x="186" y="89.9951">String id</text><rect fill="none" height="6" style="stroke:#C82930;stroke-width:1.0;" width="6" x="174" y="99.9453"/><text fill="#000000" font-family="sans-serif" font-size="14" lengthAdjust="spacing" textLength="83" x="186" y="106.292">String name</text><rect fill="none" height="6" style="stroke:#C82930;stroke-width:1.0;" width="6" x="174" y="116.2422"/><text fill="#000000" font-family="sans-serif" font-size="14" lengthAdjust="spacing" textLength="121" x="186" y="122.5889">String description</text><line style="stroke:#181818;stroke-width:0.5;" x1="167" x2="605" y1="129.8906" y2="129.8906"/><ellipse cx="177" cy="143.5391" fill="#84BE84" rx="3" ry="3" style="stroke:#038048;stroke-width:1.0;"/><text fill="#000000" font-family="sans-serif" font-size="14" font-style="italic" lengthAdjust="spacing" textLength="115" x="186" y="146.8857">void saveOnDb()</text><polygon fill="#FFFF44" points="177,154.8359,181,158.8359,177,162.8359,173,158.8359" style="stroke:#B38D22;stroke-width:1.0;"/><text fill="#000000" font-family="sans-serif" font-size="14" lengthAdjust="spacing" textLength="414" x="186" y="163.1826">void setKnownValuesOnStatement(PreparedStatement stm)</text></g><!--MD5=[f5795bcb344c90704c3bd8ee73903a6a]
class AbstractEntity--><g id="elem_AbstractEntity"><rect codeLine="10" fill="#F1F1F1" height="373.9375" id="AbstractEntity" rx="2.5" ry="2.5" style="stroke:#181818;stroke-width:0.5;" width="728" x="22" y="230"/><ellipse cx="333.75" cy="246" fill="#A9DCDF" rx="11" ry="11" style="stroke:#181818;stroke-width:1.0;"/><path d="M333.8594,241.3438 L332.7031,246.4219 L335.0313,246.4219 L333.8594,241.3438 Z M332.375,239.1094 L335.3594,239.1094 L338.7188,251.5 L336.2656,251.5 L335.5,248.4375 L332.2188,248.4375 L331.4688,251.5 L329.0313,251.5 L332.375,239.1094 Z " fill="#000000"/><text fill="#000000" font-family="sans-serif" font-size="14" font-style="italic" lengthAdjust="spacing" textLength="96" x="354.25" y="250.8467">AbstractEntity</text><line style="stroke:#181818;stroke-width:0.5;" x1="23" x2="749" y1="262" y2="262"/><rect fill="none" height="6" style="stroke:#C82930;stroke-width:1.0;" width="6" x="30" y="272.6484"/><text fill="#000000" font-family="sans-serif" font-size="14" lengthAdjust="spacing" textLength="121" x="42" y="278.9951">Set&lt;String&gt; alias</text><rect fill="none" height="6" style="stroke:#C82930;stroke-width:1.0;" width="6" x="30" y="288.9453"/><text fill="#000000" font-family="sans-serif" font-size="14" lengthAdjust="spacing" textLength="172" x="42" y="295.292">GameComponent parent</text><rect fill="none" height="6" style="stroke:#C82930;stroke-width:1.0;" width="6" x="30" y="305.2422"/><text fill="#000000" font-family="sans-serif" font-size="14" lengthAdjust="spacing" textLength="237" x="42" y="311.5889">PlayableRoom closestRoomParent</text><rect fill="none" height="6" style="stroke:#C82930;stroke-width:1.0;" width="6" x="30" y="321.5391"/><text fill="#000000" font-family="sans-serif" font-size="14" lengthAdjust="spacing" textLength="182" x="42" y="327.8857">List&lt;ObjectEvent&gt; events</text><rect fill="none" height="6" style="stroke:#C82930;stroke-width:1.0;" width="6" x="30" y="337.8359"/><text fill="#000000" font-family="sans-serif" font-size="14" lengthAdjust="spacing" textLength="322" x="42" y="344.1826">List&lt;String&gt; requiredWearedItemsIdToInteract</text><rect fill="none" height="6" style="stroke:#C82930;stroke-width:1.0;" width="6" x="30" y="354.1328"/><text fill="#000000" font-family="sans-serif" font-size="14" lengthAdjust="spacing" textLength="337" x="42" y="360.4795">List&lt;IWearable&gt; requiredWearedItemsToInteract</text><rect fill="none" height="6" style="stroke:#C82930;stroke-width:1.0;" width="6" x="30" y="370.4297"/><text fill="#000000" font-family="sans-serif" font-size="14" lengthAdjust="spacing" textLength="216" x="42" y="376.7764">String failedInteractionMessage</text><rect fill="none" height="6" style="stroke:#C82930;stroke-width:1.0;" width="6" x="30" y="386.7266"/><text fill="#000000" font-family="sans-serif" font-size="14" lengthAdjust="spacing" textLength="210" x="42" y="393.0732">boolean destroyFromInventory</text><line style="stroke:#181818;stroke-width:0.5;" x1="23" x2="749" y1="400.375" y2="400.375"/><ellipse cx="33" cy="414.0234" fill="#84BE84" rx="3" ry="3" style="stroke:#038048;stroke-width:1.0;"/><text fill="#000000" font-family="sans-serif" font-size="14" lengthAdjust="spacing" textLength="85" x="42" y="417.3701">void lookAt()</text><ellipse cx="33" cy="430.3203" fill="#84BE84" rx="3" ry="3" style="stroke:#038048;stroke-width:1.0;"/><text fill="#000000" font-family="sans-serif" font-size="14" lengthAdjust="spacing" textLength="663" x="42" y="433.667">void processReferences(Multimap&lt;String, AbstractEntity&gt; objects, List&lt;AbstractRoom&gt; rooms)</text><polygon fill="#FFFF44" points="33,441.6172,37,445.6172,33,449.6172,29,445.6172" style="stroke:#B38D22;stroke-width:1.0;"/><text fill="#000000" font-family="sans-serif" font-size="14" lengthAdjust="spacing" textLength="233" x="42" y="449.9639">void triggerEvent(EventType type)</text><polygon fill="#FFFF44" points="33,457.9141,37,461.9141,33,465.9141,29,461.9141" style="stroke:#B38D22;stroke-width:1.0;"/><text fill="#000000" font-family="sans-serif" font-size="14" lengthAdjust="spacing" textLength="147" x="42" y="466.2607">boolean canInteract()</text><polygon fill="#FFFF44" points="33,474.2109,37,478.2109,33,482.2109,29,478.2109" style="stroke:#B38D22;stroke-width:1.0;"/><text fill="#000000" font-family="sans-serif" font-size="14" lengthAdjust="spacing" textLength="620" x="42" y="482.5576">void loadLocation(ResultSet resultSet, List&lt;AbstractRoom&gt; allRooms, Inventory inventory)</text><rect fill="#F24D5C" height="6" style="stroke:#C82930;stroke-width:1.0;" width="6" x="30" y="492.5078"/><text fill="#000000" font-family="sans-serif" font-size="14" lengthAdjust="spacing" textLength="377" x="42" y="498.8545">void processRoomParent(List&lt;AbstractRoom&gt; rooms)</text><rect fill="#F24D5C" height="6" style="stroke:#C82930;stroke-width:1.0;" width="6" x="30" y="508.8047"/><text fill="#000000" font-family="sans-serif" font-size="14" lengthAdjust="spacing" textLength="702" x="42" y="515.1514">void processEventReferences(Multimap&lt;String, AbstractEntity&gt; objects, List&lt;AbstractRoom&gt; rooms)</text><rect fill="#F24D5C" height="6" style="stroke:#C82930;stroke-width:1.0;" width="6" x="30" y="525.1016"/><text fill="#000000" font-family="sans-serif" font-size="14" lengthAdjust="spacing" textLength="141" x="42" y="531.4482">void loadObjEvents()</text><rect fill="#F24D5C" height="6" style="stroke:#C82930;stroke-width:1.0;" width="6" x="30" y="541.3984"/><text fill="#000000" font-family="sans-serif" font-size="14" lengthAdjust="spacing" textLength="162" x="42" y="547.7451">void saveEventsOnDB()</text><rect fill="#F24D5C" height="6" style="stroke:#C82930;stroke-width:1.0;" width="6" x="30" y="557.6953"/><text fill="#000000" font-family="sans-serif" font-size="14" lengthAdjust="spacing" textLength="163" x="42" y="564.042">void saveAliasesOnDB()</text><rect fill="#F24D5C" height="6" style="stroke:#C82930;stroke-width:1.0;" width="6" x="30" y="573.9922"/><text fill="#000000" font-family="sans-serif" font-size="14" lengthAdjust="spacing" textLength="269" x="42" y="580.3389">void saveRequiredWearedItemsOnDB()</text><rect fill="#F24D5C" height="6" style="stroke:#C82930;stroke-width:1.0;" width="6" x="30" y="590.2891"/><text fill="#000000" font-family="sans-serif" font-size="14" lengthAdjust="spacing" textLength="178" x="42" y="596.6357">void saveExternalsOnDB()</text></g><!--MD5=[41e46d4afda8573e534cf71d5227b132]
class ITalkable--><g id="elem_ITalkable"><rect codeLine="35" fill="#F1F1F1" height="64.2969" id="ITalkable" rx="2.5" ry="2.5" style="stroke:#181818;stroke-width:0.5;" width="143" x="837.5" y="385"/><ellipse cx="875" cy="401" fill="#B4A7E5" rx="11" ry="11" style="stroke:#181818;stroke-width:1.0;"/><path d="M870.9219,396.7656 L870.9219,394.6094 L878.3125,394.6094 L878.3125,396.7656 L875.8438,396.7656 L875.8438,404.8438 L878.3125,404.8438 L878.3125,407 L870.9219,407 L870.9219,404.8438 L873.3906,404.8438 L873.3906,396.7656 L870.9219,396.7656 Z " fill="#000000"/><text fill="#000000" font-family="sans-serif" font-size="14" font-style="italic" lengthAdjust="spacing" textLength="61" x="894" y="405.8467">ITalkable</text><line style="stroke:#181818;stroke-width:0.5;" x1="838.5" x2="979.5" y1="417" y2="417"/><line style="stroke:#181818;stroke-width:0.5;" x1="838.5" x2="979.5" y1="425" y2="425"/><ellipse cx="848.5" cy="438.6484" fill="#84BE84" rx="3" ry="3" style="stroke:#038048;stroke-width:1.0;"/><text fill="#000000" font-family="sans-serif" font-size="14" lengthAdjust="spacing" textLength="117" x="857.5" y="441.9951">ActionState talk()</text></g><!--MD5=[2e69174041fa7eb3bebc5f460ee56291]
class Human--><g id="elem_Human"><rect codeLine="39" fill="#F1F1F1" height="80.5938" id="Human" rx="2.5" ry="2.5" style="stroke:#181818;stroke-width:0.5;" width="253" x="782.5" y="664"/><ellipse cx="880.25" cy="680" fill="#ADD1B2" rx="11" ry="11" style="stroke:#181818;stroke-width:1.0;"/><path d="M883.2188,685.6406 Q882.6406,685.9375 882,686.0781 Q881.3594,686.2344 880.6563,686.2344 Q878.1563,686.2344 876.8281,684.5938 Q875.5156,682.9375 875.5156,679.8125 Q875.5156,676.6875 876.8281,675.0313 Q878.1563,673.375 880.6563,673.375 Q881.3594,673.375 882,673.5313 Q882.6563,673.6875 883.2188,673.9844 L883.2188,676.7031 Q882.5938,676.125 882,675.8594 Q881.4063,675.5781 880.7813,675.5781 Q879.4375,675.5781 878.75,676.6563 Q878.0625,677.7188 878.0625,679.8125 Q878.0625,681.9063 878.75,682.9844 Q879.4375,684.0469 880.7813,684.0469 Q881.4063,684.0469 882,683.7813 Q882.5938,683.5 883.2188,682.9219 L883.2188,685.6406 Z " fill="#000000"/><text fill="#000000" font-family="sans-serif" font-size="14" lengthAdjust="spacing" textLength="49" x="900.75" y="684.8467">Human</text><line style="stroke:#181818;stroke-width:0.5;" x1="783.5" x2="1034.5" y1="696" y2="696"/><rect fill="none" height="6" style="stroke:#C82930;stroke-width:1.0;" width="6" x="790.5" y="706.6484"/><text fill="#000000" font-family="sans-serif" font-size="14" lengthAdjust="spacing" textLength="171" x="802.5" y="712.9951">Queue&lt;String&gt; phrases</text><line style="stroke:#181818;stroke-width:0.5;" x1="783.5" x2="1034.5" y1="720.2969" y2="720.2969"/><ellipse cx="793.5" cy="733.9453" fill="#84BE84" rx="3" ry="3" style="stroke:#038048;stroke-width:1.0;"/><text fill="#000000" font-family="sans-serif" font-size="14" lengthAdjust="spacing" textLength="227" x="802.5" y="737.292">void queuePhrase(String phrase)</text></g><!--MD5=[f6206d2ec51ac58d808468fe0a74c9c8]
reverse link GameComponent to AbstractEntity--><g id="link_GameComponent_AbstractEntity"><path d="M386,190.42 C386,202.88 386,216.13 386,229.72 " fill="none" id="GameComponent-backto-AbstractEntity" style="stroke:#181818;stroke-width:1.0;"/><polygon fill="none" points="379,190.25,386,170.25,393,190.25,379,190.25" style="stroke:#181818;stroke-width:1.0;"/></g><!--MD5=[647ca2a0d241c1bbc6326080a72afcea]
reverse link AbstractEntity to Human--><g id="link_AbstractEntity_Human"><path d="M744.8,613.86 C778.77,632.41 810.18,649.56 836.24,663.78 " fill="none" id="AbstractEntity-backto-Human" style="stroke:#181818;stroke-width:1.0;"/><polygon fill="none" points="741.01,619.77,726.81,604.05,747.72,607.49,741.01,619.77" style="stroke:#181818;stroke-width:1.0;"/></g><!--MD5=[6e6de79309648ea6eb890da50730b430]
reverse link ITalkable to Human--><g id="link_ITalkable_Human"><path d="M909,469.46 C909,525.24 909,613.07 909,663.78 " fill="none" id="ITalkable-backto-Human" style="stroke:#181818;stroke-width:1.0;stroke-dasharray:7.0,7.0;"/><polygon fill="none" points="902,469.1,909,449.1,916,469.1,902,469.1" style="stroke:#181818;stroke-width:1.0;"/></g><!--MD5=[4c902f215c3c617f055b1d125ad2ba1a]
@startuml
package "entity humanoid" #DDDDDD {
    abstract class GameComponent {
        - String id
        - String name
        - String description
        + {abstract} void saveOnDb()
        # void setKnownValuesOnStatement(PreparedStatement stm)
    }
    
    abstract class AbstractEntity extends GameComponent {
        - Set<String> alias
        - GameComponent parent
        - PlayableRoom closestRoomParent
        - List<ObjectEvent> events
        - List<String> requiredWearedItemsIdToInteract
        - List<IWearable> requiredWearedItemsToInteract
        - String failedInteractionMessage
        - boolean destroyFromInventory
        + void lookAt()
        + void processReferences(Multimap<String, AbstractEntity> objects, List<AbstractRoom> rooms)
        # void triggerEvent(EventType type)
        # boolean canInteract()
        # void loadLocation(ResultSet resultSet, List<AbstractRoom> allRooms, Inventory inventory)
        - void processRoomParent(List<AbstractRoom> rooms)
        - void processEventReferences(Multimap<String, AbstractEntity> objects, List<AbstractRoom> rooms)
        - void loadObjEvents()
        - void saveEventsOnDB()
        - void saveAliasesOnDB()
        - void saveRequiredWearedItemsOnDB()
        - void saveExternalsOnDB()
    }
    
    
    together {
        interface ITalkable {
            + ActionState talk()
        }
        
        class Human extends AbstractEntity implements ITalkable {
            - Queue<String> phrases
            + void queuePhrase(String phrase)
        }
    }
}
@enduml

PlantUML version 1.2022.7(Mon Aug 22 19:01:30 CEST 2022)
(GPL source distribution)
Java Runtime: OpenJDK Runtime Environment
JVM: OpenJDK 64-Bit Server VM
Default Encoding: UTF-8
Language: it
Country: IT
--></g></svg>