<?xml version="1.0" encoding="UTF-8" standalone="no"?><svg xmlns="http://www.w3.org/2000/svg" xmlns:xlink="http://www.w3.org/1999/xlink" contentStyleType="text/css" height="792px" preserveAspectRatio="none" style="width:1358px;height:792px;background:#FFFFFF;" version="1.1" viewBox="0 0 1358 792" width="1358px" zoomAndPan="magnify"><defs/><g><!--MD5=[28fcf2b41482df59db392bb933fec09c]
cluster entity object--><g id="cluster_entity object"><path d="M8.5,6 L108.5,6 A3.75,3.75 0 0 1 111,8.5 L118,28.2969 L1348.5,28.2969 A2.5,2.5 0 0 1 1351,30.7969 L1351,782.5 A2.5,2.5 0 0 1 1348.5,785 L8.5,785 A2.5,2.5 0 0 1 6,782.5 L6,8.5 A2.5,2.5 0 0 1 8.5,6 " fill="#DDDDDD" style="stroke:#000000;stroke-width:1.5;"/><line style="stroke:#000000;stroke-width:1.5;" x1="6" x2="118" y1="28.2969" y2="28.2969"/><text fill="#000000" font-family="sans-serif" font-size="14" font-weight="bold" lengthAdjust="spacing" textLength="99" x="10" y="20.9951">entity object</text></g><!--MD5=[299b79098022c64b03f396ac59ef46ab]
class GameComponent--><g id="elem_GameComponent"><rect codeLine="2" fill="#F1F1F1" height="129.4844" id="GameComponent" rx="2.5" ry="2.5" style="stroke:#181818;stroke-width:0.5;" width="440" x="166" y="41"/><ellipse cx="320.25" cy="57" fill="#A9DCDF" rx="11" ry="11" style="stroke:#181818;stroke-width:1.0;"/><path d="M320.3594,52.3438 L319.2031,57.4219 L321.5313,57.4219 L320.3594,52.3438 Z M318.875,50.1094 L321.8594,50.1094 L325.2188,62.5 L322.7656,62.5 L322,59.4375 L318.7188,59.4375 L317.9688,62.5 L315.5313,62.5 L318.875,50.1094 Z " fill="#000000"/><text fill="#000000" font-family="sans-serif" font-size="14" font-style="italic" lengthAdjust="spacing" textLength="123" x="340.75" y="61.8467">GameComponent</text><line style="stroke:#181818;stroke-width:0.5;" x1="167" x2="605" y1="73" y2="73"/><rect fill="none" height="6" style="stroke:#C82930;stroke-width:1.0;" width="6" x="174" y="83.6484"/><text fill="#000000" font-family="sans-serif" font-size="14" lengthAdjust="spacing" textLength="56" x="186" y="89.9951">String id</text><rect fill="none" height="6" style="stroke:#C82930;stroke-width:1.0;" width="6" x="174" y="99.9453"/><text fill="#000000" font-family="sans-serif" font-size="14" lengthAdjust="spacing" textLength="83" x="186" y="106.292">String name</text><rect fill="none" height="6" style="stroke:#C82930;stroke-width:1.0;" width="6" x="174" y="116.2422"/><text fill="#000000" font-family="sans-serif" font-size="14" lengthAdjust="spacing" textLength="121" x="186" y="122.5889">String description</text><line style="stroke:#181818;stroke-width:0.5;" x1="167" x2="605" y1="129.8906" y2="129.8906"/><ellipse cx="177" cy="143.5391" fill="#84BE84" rx="3" ry="3" style="stroke:#038048;stroke-width:1.0;"/><text fill="#000000" font-family="sans-serif" font-size="14" font-style="italic" lengthAdjust="spacing" textLength="115" x="186" y="146.8857">void saveOnDb()</text><polygon fill="#FFFF44" points="177,154.8359,181,158.8359,177,162.8359,173,158.8359" style="stroke:#B38D22;stroke-width:1.0;"/><text fill="#000000" font-family="sans-serif" font-size="14" lengthAdjust="spacing" textLength="414" x="186" y="163.1826">void setKnownValuesOnStatement(PreparedStatement stm)</text></g><!--MD5=[f5795bcb344c90704c3bd8ee73903a6a]
class AbstractEntity--><g id="elem_AbstractEntity"><rect codeLine="10" fill="#F1F1F1" height="373.9375" id="AbstractEntity" rx="2.5" ry="2.5" style="stroke:#181818;stroke-width:0.5;" width="728" x="22" y="230"/><ellipse cx="333.75" cy="246" fill="#A9DCDF" rx="11" ry="11" style="stroke:#181818;stroke-width:1.0;"/><path d="M333.8594,241.3438 L332.7031,246.4219 L335.0313,246.4219 L333.8594,241.3438 Z M332.375,239.1094 L335.3594,239.1094 L338.7188,251.5 L336.2656,251.5 L335.5,248.4375 L332.2188,248.4375 L331.4688,251.5 L329.0313,251.5 L332.375,239.1094 Z " fill="#000000"/><text fill="#000000" font-family="sans-serif" font-size="14" font-style="italic" lengthAdjust="spacing" textLength="96" x="354.25" y="250.8467">AbstractEntity</text><line style="stroke:#181818;stroke-width:0.5;" x1="23" x2="749" y1="262" y2="262"/><rect fill="none" height="6" style="stroke:#C82930;stroke-width:1.0;" width="6" x="30" y="272.6484"/><text fill="#000000" font-family="sans-serif" font-size="14" lengthAdjust="spacing" textLength="121" x="42" y="278.9951">Set&lt;String&gt; alias</text><rect fill="none" height="6" style="stroke:#C82930;stroke-width:1.0;" width="6" x="30" y="288.9453"/><text fill="#000000" font-family="sans-serif" font-size="14" lengthAdjust="spacing" textLength="172" x="42" y="295.292">GameComponent parent</text><rect fill="none" height="6" style="stroke:#C82930;stroke-width:1.0;" width="6" x="30" y="305.2422"/><text fill="#000000" font-family="sans-serif" font-size="14" lengthAdjust="spacing" textLength="237" x="42" y="311.5889">PlayableRoom closestRoomParent</text><rect fill="none" height="6" style="stroke:#C82930;stroke-width:1.0;" width="6" x="30" y="321.5391"/><text fill="#000000" font-family="sans-serif" font-size="14" lengthAdjust="spacing" textLength="182" x="42" y="327.8857">List&lt;ObjectEvent&gt; events</text><rect fill="none" height="6" style="stroke:#C82930;stroke-width:1.0;" width="6" x="30" y="337.8359"/><text fill="#000000" font-family="sans-serif" font-size="14" lengthAdjust="spacing" textLength="322" x="42" y="344.1826">List&lt;String&gt; requiredWearedItemsIdToInteract</text><rect fill="none" height="6" style="stroke:#C82930;stroke-width:1.0;" width="6" x="30" y="354.1328"/><text fill="#000000" font-family="sans-serif" font-size="14" lengthAdjust="spacing" textLength="337" x="42" y="360.4795">List&lt;IWearable&gt; requiredWearedItemsToInteract</text><rect fill="none" height="6" style="stroke:#C82930;stroke-width:1.0;" width="6" x="30" y="370.4297"/><text fill="#000000" font-family="sans-serif" font-size="14" lengthAdjust="spacing" textLength="216" x="42" y="376.7764">String failedInteractionMessage</text><rect fill="none" height="6" style="stroke:#C82930;stroke-width:1.0;" width="6" x="30" y="386.7266"/><text fill="#000000" font-family="sans-serif" font-size="14" lengthAdjust="spacing" textLength="210" x="42" y="393.0732">boolean destroyFromInventory</text><line style="stroke:#181818;stroke-width:0.5;" x1="23" x2="749" y1="400.375" y2="400.375"/><ellipse cx="33" cy="414.0234" fill="#84BE84" rx="3" ry="3" style="stroke:#038048;stroke-width:1.0;"/><text fill="#000000" font-family="sans-serif" font-size="14" lengthAdjust="spacing" textLength="85" x="42" y="417.3701">void lookAt()</text><ellipse cx="33" cy="430.3203" fill="#84BE84" rx="3" ry="3" style="stroke:#038048;stroke-width:1.0;"/><text fill="#000000" font-family="sans-serif" font-size="14" lengthAdjust="spacing" textLength="663" x="42" y="433.667">void processReferences(Multimap&lt;String, AbstractEntity&gt; objects, List&lt;AbstractRoom&gt; rooms)</text><polygon fill="#FFFF44" points="33,441.6172,37,445.6172,33,449.6172,29,445.6172" style="stroke:#B38D22;stroke-width:1.0;"/><text fill="#000000" font-family="sans-serif" font-size="14" lengthAdjust="spacing" textLength="233" x="42" y="449.9639">void triggerEvent(EventType type)</text><polygon fill="#FFFF44" points="33,457.9141,37,461.9141,33,465.9141,29,461.9141" style="stroke:#B38D22;stroke-width:1.0;"/><text fill="#000000" font-family="sans-serif" font-size="14" lengthAdjust="spacing" textLength="147" x="42" y="466.2607">boolean canInteract()</text><polygon fill="#FFFF44" points="33,474.2109,37,478.2109,33,482.2109,29,478.2109" style="stroke:#B38D22;stroke-width:1.0;"/><text fill="#000000" font-family="sans-serif" font-size="14" lengthAdjust="spacing" textLength="620" x="42" y="482.5576">void loadLocation(ResultSet resultSet, List&lt;AbstractRoom&gt; allRooms, Inventory inventory)</text><rect fill="#F24D5C" height="6" style="stroke:#C82930;stroke-width:1.0;" width="6" x="30" y="492.5078"/><text fill="#000000" font-family="sans-serif" font-size="14" lengthAdjust="spacing" textLength="377" x="42" y="498.8545">void processRoomParent(List&lt;AbstractRoom&gt; rooms)</text><rect fill="#F24D5C" height="6" style="stroke:#C82930;stroke-width:1.0;" width="6" x="30" y="508.8047"/><text fill="#000000" font-family="sans-serif" font-size="14" lengthAdjust="spacing" textLength="702" x="42" y="515.1514">void processEventReferences(Multimap&lt;String, AbstractEntity&gt; objects, List&lt;AbstractRoom&gt; rooms)</text><rect fill="#F24D5C" height="6" style="stroke:#C82930;stroke-width:1.0;" width="6" x="30" y="525.1016"/><text fill="#000000" font-family="sans-serif" font-size="14" lengthAdjust="spacing" textLength="141" x="42" y="531.4482">void loadObjEvents()</text><rect fill="#F24D5C" height="6" style="stroke:#C82930;stroke-width:1.0;" width="6" x="30" y="541.3984"/><text fill="#000000" font-family="sans-serif" font-size="14" lengthAdjust="spacing" textLength="162" x="42" y="547.7451">void saveEventsOnDB()</text><rect fill="#F24D5C" height="6" style="stroke:#C82930;stroke-width:1.0;" width="6" x="30" y="557.6953"/><text fill="#000000" font-family="sans-serif" font-size="14" lengthAdjust="spacing" textLength="163" x="42" y="564.042">void saveAliasesOnDB()</text><rect fill="#F24D5C" height="6" style="stroke:#C82930;stroke-width:1.0;" width="6" x="30" y="573.9922"/><text fill="#000000" font-family="sans-serif" font-size="14" lengthAdjust="spacing" textLength="269" x="42" y="580.3389">void saveRequiredWearedItemsOnDB()</text><rect fill="#F24D5C" height="6" style="stroke:#C82930;stroke-width:1.0;" width="6" x="30" y="590.2891"/><text fill="#000000" font-family="sans-serif" font-size="14" lengthAdjust="spacing" textLength="178" x="42" y="596.6357">void saveExternalsOnDB()</text></g><!--MD5=[e80df570b721c9aa307641e0d11b74ef]
class IMovable--><g id="elem_IMovable"><rect codeLine="36" fill="#F1F1F1" height="64.2969" id="IMovable" rx="2.5" ry="2.5" style="stroke:#181818;stroke-width:0.5;" width="157" x="1153.5" y="385"/><ellipse cx="1196.85" cy="401" fill="#B4A7E5" rx="11" ry="11" style="stroke:#181818;stroke-width:1.0;"/><path d="M1192.7719,396.7656 L1192.7719,394.6094 L1200.1625,394.6094 L1200.1625,396.7656 L1197.6938,396.7656 L1197.6938,404.8438 L1200.1625,404.8438 L1200.1625,407 L1192.7719,407 L1192.7719,404.8438 L1195.2406,404.8438 L1195.2406,396.7656 L1192.7719,396.7656 Z " fill="#000000"/><text fill="#000000" font-family="sans-serif" font-size="14" font-style="italic" lengthAdjust="spacing" textLength="62" x="1217.15" y="405.8467">IMovable</text><line style="stroke:#181818;stroke-width:0.5;" x1="1154.5" x2="1309.5" y1="417" y2="417"/><line style="stroke:#181818;stroke-width:0.5;" x1="1154.5" x2="1309.5" y1="425" y2="425"/><ellipse cx="1164.5" cy="438.6484" fill="#84BE84" rx="3" ry="3" style="stroke:#038048;stroke-width:1.0;"/><text fill="#000000" font-family="sans-serif" font-size="14" lengthAdjust="spacing" textLength="131" x="1173.5" y="441.9951">ActionState move()</text></g><!--MD5=[691a7a82996877e060e37297bd23b9f4]
class IPushable--><g id="elem_IPushable"><rect codeLine="40" fill="#F1F1F1" height="64.2969" id="IPushable" rx="2.5" ry="2.5" style="stroke:#181818;stroke-width:0.5;" width="154" x="964" y="385"/><ellipse cx="1004.2" cy="401" fill="#B4A7E5" rx="11" ry="11" style="stroke:#181818;stroke-width:1.0;"/><path d="M1000.1219,396.7656 L1000.1219,394.6094 L1007.5125,394.6094 L1007.5125,396.7656 L1005.0438,396.7656 L1005.0438,404.8438 L1007.5125,404.8438 L1007.5125,407 L1000.1219,407 L1000.1219,404.8438 L1002.5906,404.8438 L1002.5906,396.7656 L1000.1219,396.7656 Z " fill="#000000"/><text fill="#000000" font-family="sans-serif" font-size="14" font-style="italic" lengthAdjust="spacing" textLength="66" x="1023.8" y="405.8467">IPushable</text><line style="stroke:#181818;stroke-width:0.5;" x1="965" x2="1117" y1="417" y2="417"/><line style="stroke:#181818;stroke-width:0.5;" x1="965" x2="1117" y1="425" y2="425"/><ellipse cx="975" cy="438.6484" fill="#84BE84" rx="3" ry="3" style="stroke:#038048;stroke-width:1.0;"/><text fill="#000000" font-family="sans-serif" font-size="14" lengthAdjust="spacing" textLength="128" x="984" y="441.9951">ActionState push()</text></g><!--MD5=[9b6cb1f19deeb01a8ef0ac4d788c3c86]
class IPullable--><g id="elem_IPullable"><rect codeLine="44" fill="#F1F1F1" height="64.2969" id="IPullable" rx="2.5" ry="2.5" style="stroke:#181818;stroke-width:0.5;" width="143" x="785.5" y="385"/><ellipse cx="825.25" cy="401" fill="#B4A7E5" rx="11" ry="11" style="stroke:#181818;stroke-width:1.0;"/><path d="M821.1719,396.7656 L821.1719,394.6094 L828.5625,394.6094 L828.5625,396.7656 L826.0938,396.7656 L826.0938,404.8438 L828.5625,404.8438 L828.5625,407 L821.1719,407 L821.1719,404.8438 L823.6406,404.8438 L823.6406,396.7656 L821.1719,396.7656 Z " fill="#000000"/><text fill="#000000" font-family="sans-serif" font-size="14" font-style="italic" lengthAdjust="spacing" textLength="56" x="844.75" y="405.8467">IPullable</text><line style="stroke:#181818;stroke-width:0.5;" x1="786.5" x2="927.5" y1="417" y2="417"/><line style="stroke:#181818;stroke-width:0.5;" x1="786.5" x2="927.5" y1="425" y2="425"/><ellipse cx="796.5" cy="438.6484" fill="#84BE84" rx="3" ry="3" style="stroke:#038048;stroke-width:1.0;"/><text fill="#000000" font-family="sans-serif" font-size="14" lengthAdjust="spacing" textLength="117" x="805.5" y="441.9951">ActionState pull()</text></g><!--MD5=[16b41efec5c0393be233bb8a1f501e00]
class BasicObject--><g id="elem_BasicObject"><rect codeLine="50" fill="#F1F1F1" height="48" id="BasicObject" rx="2.5" ry="2.5" style="stroke:#181818;stroke-width:0.5;" width="114" x="422" y="680.5"/><ellipse cx="437" cy="696.5" fill="#ADD1B2" rx="11" ry="11" style="stroke:#181818;stroke-width:1.0;"/><path d="M439.9688,702.1406 Q439.3906,702.4375 438.75,702.5781 Q438.1094,702.7344 437.4063,702.7344 Q434.9063,702.7344 433.5781,701.0938 Q432.2656,699.4375 432.2656,696.3125 Q432.2656,693.1875 433.5781,691.5313 Q434.9063,689.875 437.4063,689.875 Q438.1094,689.875 438.75,690.0313 Q439.4063,690.1875 439.9688,690.4844 L439.9688,693.2031 Q439.3438,692.625 438.75,692.3594 Q438.1563,692.0781 437.5313,692.0781 Q436.1875,692.0781 435.5,693.1563 Q434.8125,694.2188 434.8125,696.3125 Q434.8125,698.4063 435.5,699.4844 Q436.1875,700.5469 437.5313,700.5469 Q438.1563,700.5469 438.75,700.2813 Q439.3438,700 439.9688,699.4219 L439.9688,702.1406 Z " fill="#000000"/><text fill="#000000" font-family="sans-serif" font-size="14" lengthAdjust="spacing" textLength="82" x="451" y="701.3467">BasicObject</text><line style="stroke:#181818;stroke-width:0.5;" x1="423" x2="535" y1="712.5" y2="712.5"/><line style="stroke:#181818;stroke-width:0.5;" x1="423" x2="535" y1="720.5" y2="720.5"/></g><!--MD5=[03d62c3a6f9a02cebc6eceac88e07cd8]
class FireObject--><g id="elem_FireObject"><rect codeLine="53" fill="#F1F1F1" height="80.5938" id="FireObject" rx="2.5" ry="2.5" style="stroke:#181818;stroke-width:0.5;" width="190" x="197" y="664"/><ellipse cx="252.75" cy="680" fill="#ADD1B2" rx="11" ry="11" style="stroke:#181818;stroke-width:1.0;"/><path d="M255.7188,685.6406 Q255.1406,685.9375 254.5,686.0781 Q253.8594,686.2344 253.1563,686.2344 Q250.6563,686.2344 249.3281,684.5938 Q248.0156,682.9375 248.0156,679.8125 Q248.0156,676.6875 249.3281,675.0313 Q250.6563,673.375 253.1563,673.375 Q253.8594,673.375 254.5,673.5313 Q255.1563,673.6875 255.7188,673.9844 L255.7188,676.7031 Q255.0938,676.125 254.5,675.8594 Q253.9063,675.5781 253.2813,675.5781 Q251.9375,675.5781 251.25,676.6563 Q250.5625,677.7188 250.5625,679.8125 Q250.5625,681.9063 251.25,682.9844 Q251.9375,684.0469 253.2813,684.0469 Q253.9063,684.0469 254.5,683.7813 Q255.0938,683.5 255.7188,682.9219 L255.7188,685.6406 Z " fill="#000000"/><text fill="#000000" font-family="sans-serif" font-size="14" lengthAdjust="spacing" textLength="70" x="273.25" y="684.8467">FireObject</text><line style="stroke:#181818;stroke-width:0.5;" x1="198" x2="386" y1="696" y2="696"/><rect fill="none" height="6" style="stroke:#C82930;stroke-width:1.0;" width="6" x="205" y="706.6484"/><text fill="#000000" font-family="sans-serif" font-size="14" lengthAdjust="spacing" textLength="71" x="217" y="712.9951">boolean lit</text><line style="stroke:#181818;stroke-width:0.5;" x1="198" x2="386" y1="720.2969" y2="720.2969"/><ellipse cx="208" cy="733.9453" fill="#84BE84" rx="3" ry="3" style="stroke:#038048;stroke-width:1.0;"/><text fill="#000000" font-family="sans-serif" font-size="14" lengthAdjust="spacing" textLength="164" x="217" y="737.292">ActionState extinguish()</text></g><!--MD5=[ac95d7a7f9ddf19570f3725fd7cc7ef8]
class MovableObject--><g id="elem_MovableObject"><rect codeLine="58" fill="#F1F1F1" height="64.2969" id="MovableObject" rx="2.5" ry="2.5" style="stroke:#181818;stroke-width:0.5;" width="134" x="913" y="672.5"/><ellipse cx="928" cy="688.5" fill="#ADD1B2" rx="11" ry="11" style="stroke:#181818;stroke-width:1.0;"/><path d="M930.9688,694.1406 Q930.3906,694.4375 929.75,694.5781 Q929.1094,694.7344 928.4063,694.7344 Q925.9063,694.7344 924.5781,693.0938 Q923.2656,691.4375 923.2656,688.3125 Q923.2656,685.1875 924.5781,683.5313 Q925.9063,681.875 928.4063,681.875 Q929.1094,681.875 929.75,682.0313 Q930.4063,682.1875 930.9688,682.4844 L930.9688,685.2031 Q930.3438,684.625 929.75,684.3594 Q929.1563,684.0781 928.5313,684.0781 Q927.1875,684.0781 926.5,685.1563 Q925.8125,686.2188 925.8125,688.3125 Q925.8125,690.4063 926.5,691.4844 Q927.1875,692.5469 928.5313,692.5469 Q929.1563,692.5469 929.75,692.2813 Q930.3438,692 930.9688,691.4219 L930.9688,694.1406 Z " fill="#000000"/><text fill="#000000" font-family="sans-serif" font-size="14" lengthAdjust="spacing" textLength="102" x="942" y="693.3467">MovableObject</text><line style="stroke:#181818;stroke-width:0.5;" x1="914" x2="1046" y1="704.5" y2="704.5"/><rect fill="none" height="6" style="stroke:#C82930;stroke-width:1.0;" width="6" x="921" y="715.1484"/><text fill="#000000" font-family="sans-serif" font-size="14" lengthAdjust="spacing" textLength="107" x="933" y="721.4951">boolean moved</text><line style="stroke:#181818;stroke-width:0.5;" x1="914" x2="1046" y1="728.7969" y2="728.7969"/></g><!--MD5=[63654994b4a9893e49d17f42d2633457]
class PullableObject--><g id="elem_PullableObject"><rect codeLine="62" fill="#F1F1F1" height="64.2969" id="PullableObject" rx="2.5" ry="2.5" style="stroke:#181818;stroke-width:0.5;" width="130" x="571" y="672.5"/><ellipse cx="586" cy="688.5" fill="#ADD1B2" rx="11" ry="11" style="stroke:#181818;stroke-width:1.0;"/><path d="M588.9688,694.1406 Q588.3906,694.4375 587.75,694.5781 Q587.1094,694.7344 586.4063,694.7344 Q583.9063,694.7344 582.5781,693.0938 Q581.2656,691.4375 581.2656,688.3125 Q581.2656,685.1875 582.5781,683.5313 Q583.9063,681.875 586.4063,681.875 Q587.1094,681.875 587.75,682.0313 Q588.4063,682.1875 588.9688,682.4844 L588.9688,685.2031 Q588.3438,684.625 587.75,684.3594 Q587.1563,684.0781 586.5313,684.0781 Q585.1875,684.0781 584.5,685.1563 Q583.8125,686.2188 583.8125,688.3125 Q583.8125,690.4063 584.5,691.4844 Q585.1875,692.5469 586.5313,692.5469 Q587.1563,692.5469 587.75,692.2813 Q588.3438,692 588.9688,691.4219 L588.9688,694.1406 Z " fill="#000000"/><text fill="#000000" font-family="sans-serif" font-size="14" lengthAdjust="spacing" textLength="98" x="600" y="693.3467">PullableObject</text><line style="stroke:#181818;stroke-width:0.5;" x1="572" x2="700" y1="704.5" y2="704.5"/><rect fill="none" height="6" style="stroke:#C82930;stroke-width:1.0;" width="6" x="579" y="715.1484"/><text fill="#000000" font-family="sans-serif" font-size="14" lengthAdjust="spacing" textLength="102" x="591" y="721.4951">boolean pulled</text><line style="stroke:#181818;stroke-width:0.5;" x1="572" x2="700" y1="728.7969" y2="728.7969"/></g><!--MD5=[a1c53bbecd2da8f957ffd3365ecf21d6]
class PushableObject--><g id="elem_PushableObject"><rect codeLine="66" fill="#F1F1F1" height="64.2969" id="PushableObject" rx="2.5" ry="2.5" style="stroke:#181818;stroke-width:0.5;" width="141" x="736.5" y="672.5"/><ellipse cx="751.5" cy="688.5" fill="#ADD1B2" rx="11" ry="11" style="stroke:#181818;stroke-width:1.0;"/><path d="M754.4688,694.1406 Q753.8906,694.4375 753.25,694.5781 Q752.6094,694.7344 751.9063,694.7344 Q749.4063,694.7344 748.0781,693.0938 Q746.7656,691.4375 746.7656,688.3125 Q746.7656,685.1875 748.0781,683.5313 Q749.4063,681.875 751.9063,681.875 Q752.6094,681.875 753.25,682.0313 Q753.9063,682.1875 754.4688,682.4844 L754.4688,685.2031 Q753.8438,684.625 753.25,684.3594 Q752.6563,684.0781 752.0313,684.0781 Q750.6875,684.0781 750,685.1563 Q749.3125,686.2188 749.3125,688.3125 Q749.3125,690.4063 750,691.4844 Q750.6875,692.5469 752.0313,692.5469 Q752.6563,692.5469 753.25,692.2813 Q753.8438,692 754.4688,691.4219 L754.4688,694.1406 Z " fill="#000000"/><text fill="#000000" font-family="sans-serif" font-size="14" lengthAdjust="spacing" textLength="109" x="765.5" y="693.3467">PushableObject</text><line style="stroke:#181818;stroke-width:0.5;" x1="737.5" x2="876.5" y1="704.5" y2="704.5"/><rect fill="none" height="6" style="stroke:#C82930;stroke-width:1.0;" width="6" x="744.5" y="715.1484"/><text fill="#000000" font-family="sans-serif" font-size="14" lengthAdjust="spacing" textLength="113" x="756.5" y="721.4951">boolean pushed</text><line style="stroke:#181818;stroke-width:0.5;" x1="737.5" x2="876.5" y1="728.7969" y2="728.7969"/></g><!--MD5=[f6206d2ec51ac58d808468fe0a74c9c8]
reverse link GameComponent to AbstractEntity--><g id="link_GameComponent_AbstractEntity"><path d="M386,190.42 C386,202.88 386,216.13 386,229.72 " fill="none" id="GameComponent-backto-AbstractEntity" style="stroke:#181818;stroke-width:1.0;"/><polygon fill="none" points="379,190.25,386,170.25,393,190.25,379,190.25" style="stroke:#181818;stroke-width:1.0;"/></g><!--MD5=[9c044da287eb10afe42c1452a09a0417]
reverse link AbstractEntity to BasicObject--><g id="link_AbstractEntity_BasicObject"><path d="M452.83,623.15 C460.2,645.79 466.73,665.82 471.42,680.22 " fill="none" id="AbstractEntity-backto-BasicObject" style="stroke:#181818;stroke-width:1.0;"/><polygon fill="none" points="446.14,625.23,446.6,604.05,459.45,620.9,446.14,625.23" style="stroke:#181818;stroke-width:1.0;"/></g><!--MD5=[767b4016878410af0e0e966ddd122968]
reverse link AbstractEntity to FireObject--><g id="link_AbstractEntity_FireObject"><path d="M318.36,623.42 C313.47,638.3 308.94,652.04 305.08,663.78 " fill="none" id="AbstractEntity-backto-FireObject" style="stroke:#181818;stroke-width:1.0;"/><polygon fill="none" points="311.84,620.85,324.74,604.05,325.14,625.23,311.84,620.85" style="stroke:#181818;stroke-width:1.0;"/></g><!--MD5=[b9d8130340f092e1a7bfe1e94aab09ca]
reverse link AbstractEntity to MovableObject--><g id="link_AbstractEntity_MovableObject"><path d="M768.71,603.89 C768.81,603.93 768.9,603.96 769,604 C823.4,624.8 842.81,614.15 895,640 C912.33,648.59 929.74,660.81 944.26,672.25 " fill="none" id="AbstractEntity-backto-MovableObject" style="stroke:#181818;stroke-width:1.0;"/><polygon fill="none" points="766.35,610.48,750.26,596.69,771.44,597.44,766.35,610.48" style="stroke:#181818;stroke-width:1.0;"/></g><!--MD5=[358b3e31c7e34573d95ffc598c7b6da8]
reverse link IMovable to MovableObject--><g id="link_IMovable_MovableObject"><path d="M1214.51,468.17 C1198.67,508.32 1172.25,564.28 1136,604 C1110.45,632 1075.31,655.33 1044.85,672.34 " fill="none" id="IMovable-backto-MovableObject" style="stroke:#181818;stroke-width:1.0;stroke-dasharray:7.0,7.0;"/><polygon fill="none" points="1208.02,465.57,1221.63,449.33,1221.11,470.52,1208.02,465.57" style="stroke:#181818;stroke-width:1.0;"/></g><!--MD5=[5a12deb3cd5811363e47ed98c8d01c44]
reverse link AbstractEntity to PullableObject--><g id="link_AbstractEntity_PullableObject"><path d="M562.18,619.19 C580.02,639.57 596.18,658.03 608.8,672.44 " fill="none" id="AbstractEntity-backto-PullableObject" style="stroke:#181818;stroke-width:1.0;"/><polygon fill="none" points="556.82,623.7,548.91,604.05,567.36,614.48,556.82,623.7" style="stroke:#181818;stroke-width:1.0;"/></g><!--MD5=[bdb6bd743d8fe8b45b1bd7f1ba5682cb]
reverse link IPullable to PullableObject--><g id="link_IPullable_PullableObject"><path d="M846.25,468.86 C835.59,509.27 815.82,565.24 782,604 C760.8,628.3 745.87,622.16 719,640 C704.04,649.94 688.23,661.68 674.48,672.35 " fill="none" id="IPullable-backto-PullableObject" style="stroke:#181818;stroke-width:1.0;stroke-dasharray:7.0,7.0;"/><polygon fill="none" points="839.48,467.09,851.03,449.32,853.08,470.41,839.48,467.09" style="stroke:#181818;stroke-width:1.0;"/></g><!--MD5=[69a3f3e379c2a1a8a188febdfc4cb5f0]
reverse link AbstractEntity to PushableObject--><g id="link_AbstractEntity_PushableObject"><path d="M683.31,615.4 C695.39,623.68 707.32,631.9 719,640 C734.02,650.42 750.29,662.06 764.7,672.5 " fill="none" id="AbstractEntity-backto-PushableObject" style="stroke:#181818;stroke-width:1.0;"/><polygon fill="none" points="679.32,621.16,666.76,604.09,687.22,609.6,679.32,621.16" style="stroke:#181818;stroke-width:1.0;"/></g><!--MD5=[9e46f063364622dbcc58765e4213626a]
reverse link IPushable to PushableObject--><g id="link_IPushable_PushableObject"><path d="M1023.1,468.02 C1007.14,507.85 980.91,563.45 946,604 C945.52,604.56 891.34,643.29 850.78,672.25 " fill="none" id="IPushable-backto-PushableObject" style="stroke:#181818;stroke-width:1.0;stroke-dasharray:7.0,7.0;"/><polygon fill="none" points="1016.58,465.47,1030.3,449.33,1029.64,470.51,1016.58,465.47" style="stroke:#181818;stroke-width:1.0;"/></g><!--MD5=[bd52caabfe52eabb4f1f0788be90431e]
@startuml
package "entity object" #DDDDDD {
    abstract class GameComponent {
        - String id
        - String name
        - String description
        + {abstract} void saveOnDb()
        # void setKnownValuesOnStatement(PreparedStatement stm)
    }
    
    abstract class AbstractEntity extends GameComponent {
        - Set<String> alias
        - GameComponent parent
        - PlayableRoom closestRoomParent
        - List<ObjectEvent> events
        - List<String> requiredWearedItemsIdToInteract
        - List<IWearable> requiredWearedItemsToInteract
        - String failedInteractionMessage
        - boolean destroyFromInventory
        + void lookAt()
        + void processReferences(Multimap<String, AbstractEntity> objects, List<AbstractRoom> rooms)
        # void triggerEvent(EventType type)
        # boolean canInteract()
        # void loadLocation(ResultSet resultSet, List<AbstractRoom> allRooms, Inventory inventory)
        - void processRoomParent(List<AbstractRoom> rooms)
        - void processEventReferences(Multimap<String, AbstractEntity> objects, List<AbstractRoom> rooms)
        - void loadObjEvents()
        - void saveEventsOnDB()
        - void saveAliasesOnDB()
        - void saveRequiredWearedItemsOnDB()
        - void saveExternalsOnDB()
    }
    
    
    
    together {
        interface IMovable {
            + ActionState move()
        }
    
        interface IPushable {
            + ActionState push()
        }
    
        interface IPullable {
            + ActionState pull()
        }
    }
    
    together {
        class BasicObject extends AbstractEntity {
        }
        
        class FireObject extends AbstractEntity {
            - boolean lit
            + ActionState extinguish()
        }
        
        class MovableObject extends AbstractEntity implements IMovable {
            - boolean moved
        }
        
        class PullableObject extends AbstractEntity implements IPullable {
            - boolean pulled
        }
        
        class PushableObject extends AbstractEntity implements IPushable{
            - boolean pushed
        }
    }
}
@enduml

PlantUML version 1.2022.7(Mon Aug 22 19:01:30 CEST 2022)
(GPL source distribution)
Java Runtime: OpenJDK Runtime Environment
JVM: OpenJDK 64-Bit Server VM
Default Encoding: UTF-8
Language: it
Country: IT
--></g></svg>