<?xml version="1.0" encoding="UTF-8" standalone="no"?><svg xmlns="http://www.w3.org/2000/svg" xmlns:xlink="http://www.w3.org/1999/xlink" contentStyleType="text/css" height="949px" preserveAspectRatio="none" style="width:1176px;height:949px;background:#FFFFFF;" version="1.1" viewBox="0 0 1176 949" width="1176px" zoomAndPan="magnify"><defs/><g><!--MD5=[7146f32911333c33b458cd740b7e8da9]
cluster entity pickupable--><g id="cluster_entity pickupable"><path d="M8.5,6 L144.5,6 A3.75,3.75 0 0 1 147,8.5 L154,28.2969 L1166.5,28.2969 A2.5,2.5 0 0 1 1169,30.7969 L1169,939.5 A2.5,2.5 0 0 1 1166.5,942 L8.5,942 A2.5,2.5 0 0 1 6,939.5 L6,8.5 A2.5,2.5 0 0 1 8.5,6 " fill="#DDDDDD" style="stroke:#000000;stroke-width:1.5;"/><line style="stroke:#000000;stroke-width:1.5;" x1="6" x2="154" y1="28.2969" y2="28.2969"/><text fill="#000000" font-family="sans-serif" font-size="14" font-weight="bold" lengthAdjust="spacing" textLength="135" x="10" y="20.9951">entity pickupable</text></g><!--MD5=[299b79098022c64b03f396ac59ef46ab]
class GameComponent--><g id="elem_GameComponent"><rect codeLine="2" fill="#F1F1F1" height="129.4844" id="GameComponent" rx="2.5" ry="2.5" style="stroke:#181818;stroke-width:0.5;" width="440" x="368" y="41"/><ellipse cx="522.25" cy="57" fill="#A9DCDF" rx="11" ry="11" style="stroke:#181818;stroke-width:1.0;"/><path d="M522.3594,52.3438 L521.2031,57.4219 L523.5313,57.4219 L522.3594,52.3438 Z M520.875,50.1094 L523.8594,50.1094 L527.2188,62.5 L524.7656,62.5 L524,59.4375 L520.7188,59.4375 L519.9688,62.5 L517.5313,62.5 L520.875,50.1094 Z " fill="#000000"/><text fill="#000000" font-family="sans-serif" font-size="14" font-style="italic" lengthAdjust="spacing" textLength="123" x="542.75" y="61.8467">GameComponent</text><line style="stroke:#181818;stroke-width:0.5;" x1="369" x2="807" y1="73" y2="73"/><rect fill="none" height="6" style="stroke:#C82930;stroke-width:1.0;" width="6" x="376" y="83.6484"/><text fill="#000000" font-family="sans-serif" font-size="14" lengthAdjust="spacing" textLength="56" x="388" y="89.9951">String id</text><rect fill="none" height="6" style="stroke:#C82930;stroke-width:1.0;" width="6" x="376" y="99.9453"/><text fill="#000000" font-family="sans-serif" font-size="14" lengthAdjust="spacing" textLength="83" x="388" y="106.292">String name</text><rect fill="none" height="6" style="stroke:#C82930;stroke-width:1.0;" width="6" x="376" y="116.2422"/><text fill="#000000" font-family="sans-serif" font-size="14" lengthAdjust="spacing" textLength="121" x="388" y="122.5889">String description</text><line style="stroke:#181818;stroke-width:0.5;" x1="369" x2="807" y1="129.8906" y2="129.8906"/><ellipse cx="379" cy="143.5391" fill="#84BE84" rx="3" ry="3" style="stroke:#038048;stroke-width:1.0;"/><text fill="#000000" font-family="sans-serif" font-size="14" font-style="italic" lengthAdjust="spacing" textLength="115" x="388" y="146.8857">void saveOnDb()</text><polygon fill="#FFFF44" points="379,154.8359,383,158.8359,379,162.8359,375,158.8359" style="stroke:#B38D22;stroke-width:1.0;"/><text fill="#000000" font-family="sans-serif" font-size="14" lengthAdjust="spacing" textLength="414" x="388" y="163.1826">void setKnownValuesOnStatement(PreparedStatement stm)</text></g><!--MD5=[f5795bcb344c90704c3bd8ee73903a6a]
class AbstractEntity--><g id="elem_AbstractEntity"><rect codeLine="10" fill="#F1F1F1" height="373.9375" id="AbstractEntity" rx="2.5" ry="2.5" style="stroke:#181818;stroke-width:0.5;" width="728" x="224" y="230"/><ellipse cx="535.75" cy="246" fill="#A9DCDF" rx="11" ry="11" style="stroke:#181818;stroke-width:1.0;"/><path d="M535.8594,241.3438 L534.7031,246.4219 L537.0313,246.4219 L535.8594,241.3438 Z M534.375,239.1094 L537.3594,239.1094 L540.7188,251.5 L538.2656,251.5 L537.5,248.4375 L534.2188,248.4375 L533.4688,251.5 L531.0313,251.5 L534.375,239.1094 Z " fill="#000000"/><text fill="#000000" font-family="sans-serif" font-size="14" font-style="italic" lengthAdjust="spacing" textLength="96" x="556.25" y="250.8467">AbstractEntity</text><line style="stroke:#181818;stroke-width:0.5;" x1="225" x2="951" y1="262" y2="262"/><rect fill="none" height="6" style="stroke:#C82930;stroke-width:1.0;" width="6" x="232" y="272.6484"/><text fill="#000000" font-family="sans-serif" font-size="14" lengthAdjust="spacing" textLength="121" x="244" y="278.9951">Set&lt;String&gt; alias</text><rect fill="none" height="6" style="stroke:#C82930;stroke-width:1.0;" width="6" x="232" y="288.9453"/><text fill="#000000" font-family="sans-serif" font-size="14" lengthAdjust="spacing" textLength="172" x="244" y="295.292">GameComponent parent</text><rect fill="none" height="6" style="stroke:#C82930;stroke-width:1.0;" width="6" x="232" y="305.2422"/><text fill="#000000" font-family="sans-serif" font-size="14" lengthAdjust="spacing" textLength="237" x="244" y="311.5889">PlayableRoom closestRoomParent</text><rect fill="none" height="6" style="stroke:#C82930;stroke-width:1.0;" width="6" x="232" y="321.5391"/><text fill="#000000" font-family="sans-serif" font-size="14" lengthAdjust="spacing" textLength="182" x="244" y="327.8857">List&lt;ObjectEvent&gt; events</text><rect fill="none" height="6" style="stroke:#C82930;stroke-width:1.0;" width="6" x="232" y="337.8359"/><text fill="#000000" font-family="sans-serif" font-size="14" lengthAdjust="spacing" textLength="322" x="244" y="344.1826">List&lt;String&gt; requiredWearedItemsIdToInteract</text><rect fill="none" height="6" style="stroke:#C82930;stroke-width:1.0;" width="6" x="232" y="354.1328"/><text fill="#000000" font-family="sans-serif" font-size="14" lengthAdjust="spacing" textLength="337" x="244" y="360.4795">List&lt;IWearable&gt; requiredWearedItemsToInteract</text><rect fill="none" height="6" style="stroke:#C82930;stroke-width:1.0;" width="6" x="232" y="370.4297"/><text fill="#000000" font-family="sans-serif" font-size="14" lengthAdjust="spacing" textLength="216" x="244" y="376.7764">String failedInteractionMessage</text><rect fill="none" height="6" style="stroke:#C82930;stroke-width:1.0;" width="6" x="232" y="386.7266"/><text fill="#000000" font-family="sans-serif" font-size="14" lengthAdjust="spacing" textLength="210" x="244" y="393.0732">boolean destroyFromInventory</text><line style="stroke:#181818;stroke-width:0.5;" x1="225" x2="951" y1="400.375" y2="400.375"/><ellipse cx="235" cy="414.0234" fill="#84BE84" rx="3" ry="3" style="stroke:#038048;stroke-width:1.0;"/><text fill="#000000" font-family="sans-serif" font-size="14" lengthAdjust="spacing" textLength="85" x="244" y="417.3701">void lookAt()</text><ellipse cx="235" cy="430.3203" fill="#84BE84" rx="3" ry="3" style="stroke:#038048;stroke-width:1.0;"/><text fill="#000000" font-family="sans-serif" font-size="14" lengthAdjust="spacing" textLength="663" x="244" y="433.667">void processReferences(Multimap&lt;String, AbstractEntity&gt; objects, List&lt;AbstractRoom&gt; rooms)</text><polygon fill="#FFFF44" points="235,441.6172,239,445.6172,235,449.6172,231,445.6172" style="stroke:#B38D22;stroke-width:1.0;"/><text fill="#000000" font-family="sans-serif" font-size="14" lengthAdjust="spacing" textLength="233" x="244" y="449.9639">void triggerEvent(EventType type)</text><polygon fill="#FFFF44" points="235,457.9141,239,461.9141,235,465.9141,231,461.9141" style="stroke:#B38D22;stroke-width:1.0;"/><text fill="#000000" font-family="sans-serif" font-size="14" lengthAdjust="spacing" textLength="147" x="244" y="466.2607">boolean canInteract()</text><polygon fill="#FFFF44" points="235,474.2109,239,478.2109,235,482.2109,231,478.2109" style="stroke:#B38D22;stroke-width:1.0;"/><text fill="#000000" font-family="sans-serif" font-size="14" lengthAdjust="spacing" textLength="620" x="244" y="482.5576">void loadLocation(ResultSet resultSet, List&lt;AbstractRoom&gt; allRooms, Inventory inventory)</text><rect fill="#F24D5C" height="6" style="stroke:#C82930;stroke-width:1.0;" width="6" x="232" y="492.5078"/><text fill="#000000" font-family="sans-serif" font-size="14" lengthAdjust="spacing" textLength="377" x="244" y="498.8545">void processRoomParent(List&lt;AbstractRoom&gt; rooms)</text><rect fill="#F24D5C" height="6" style="stroke:#C82930;stroke-width:1.0;" width="6" x="232" y="508.8047"/><text fill="#000000" font-family="sans-serif" font-size="14" lengthAdjust="spacing" textLength="702" x="244" y="515.1514">void processEventReferences(Multimap&lt;String, AbstractEntity&gt; objects, List&lt;AbstractRoom&gt; rooms)</text><rect fill="#F24D5C" height="6" style="stroke:#C82930;stroke-width:1.0;" width="6" x="232" y="525.1016"/><text fill="#000000" font-family="sans-serif" font-size="14" lengthAdjust="spacing" textLength="141" x="244" y="531.4482">void loadObjEvents()</text><rect fill="#F24D5C" height="6" style="stroke:#C82930;stroke-width:1.0;" width="6" x="232" y="541.3984"/><text fill="#000000" font-family="sans-serif" font-size="14" lengthAdjust="spacing" textLength="162" x="244" y="547.7451">void saveEventsOnDB()</text><rect fill="#F24D5C" height="6" style="stroke:#C82930;stroke-width:1.0;" width="6" x="232" y="557.6953"/><text fill="#000000" font-family="sans-serif" font-size="14" lengthAdjust="spacing" textLength="163" x="244" y="564.042">void saveAliasesOnDB()</text><rect fill="#F24D5C" height="6" style="stroke:#C82930;stroke-width:1.0;" width="6" x="232" y="573.9922"/><text fill="#000000" font-family="sans-serif" font-size="14" lengthAdjust="spacing" textLength="269" x="244" y="580.3389">void saveRequiredWearedItemsOnDB()</text><rect fill="#F24D5C" height="6" style="stroke:#C82930;stroke-width:1.0;" width="6" x="232" y="590.2891"/><text fill="#000000" font-family="sans-serif" font-size="14" lengthAdjust="spacing" textLength="178" x="244" y="596.6357">void saveExternalsOnDB()</text></g><!--MD5=[5b6a8c4f5886249c3febd39968e1d21a]
class IPickupable--><g id="elem_IPickupable"><rect codeLine="35" fill="#F1F1F1" height="64.2969" id="IPickupable" rx="2.5" ry="2.5" style="stroke:#181818;stroke-width:0.5;" width="165" x="987.5" y="385"/><ellipse cx="1027.25" cy="401" fill="#B4A7E5" rx="11" ry="11" style="stroke:#181818;stroke-width:1.0;"/><path d="M1023.1719,396.7656 L1023.1719,394.6094 L1030.5625,394.6094 L1030.5625,396.7656 L1028.0938,396.7656 L1028.0938,404.8438 L1030.5625,404.8438 L1030.5625,407 L1023.1719,407 L1023.1719,404.8438 L1025.6406,404.8438 L1025.6406,396.7656 L1023.1719,396.7656 Z " fill="#000000"/><text fill="#000000" font-family="sans-serif" font-size="14" font-style="italic" lengthAdjust="spacing" textLength="78" x="1046.75" y="405.8467">IPickupable</text><line style="stroke:#181818;stroke-width:0.5;" x1="988.5" x2="1151.5" y1="417" y2="417"/><line style="stroke:#181818;stroke-width:0.5;" x1="988.5" x2="1151.5" y1="425" y2="425"/><ellipse cx="998.5" cy="438.6484" fill="#84BE84" rx="3" ry="3" style="stroke:#038048;stroke-width:1.0;"/><text fill="#000000" font-family="sans-serif" font-size="14" lengthAdjust="spacing" textLength="139" x="1007.5" y="441.9951">ActionState pickup()</text></g><!--MD5=[cc0d321437ba30785e08058a58e186a4]
class IFillable--><g id="elem_IFillable"><rect codeLine="39" fill="#F1F1F1" height="64.2969" id="IFillable" rx="2.5" ry="2.5" style="stroke:#181818;stroke-width:0.5;" width="132" x="728" y="672.5"/><ellipse cx="765.5" cy="688.5" fill="#B4A7E5" rx="11" ry="11" style="stroke:#181818;stroke-width:1.0;"/><path d="M761.4219,684.2656 L761.4219,682.1094 L768.8125,682.1094 L768.8125,684.2656 L766.3438,684.2656 L766.3438,692.3438 L768.8125,692.3438 L768.8125,694.5 L761.4219,694.5 L761.4219,692.3438 L763.8906,692.3438 L763.8906,684.2656 L761.4219,684.2656 Z " fill="#000000"/><text fill="#000000" font-family="sans-serif" font-size="14" font-style="italic" lengthAdjust="spacing" textLength="50" x="784.5" y="693.3467">IFillable</text><line style="stroke:#181818;stroke-width:0.5;" x1="729" x2="859" y1="704.5" y2="704.5"/><line style="stroke:#181818;stroke-width:0.5;" x1="729" x2="859" y1="712.5" y2="712.5"/><ellipse cx="739" cy="726.1484" fill="#84BE84" rx="3" ry="3" style="stroke:#038048;stroke-width:1.0;"/><text fill="#000000" font-family="sans-serif" font-size="14" lengthAdjust="spacing" textLength="106" x="748" y="729.4951">ActionState fill()</text></g><!--MD5=[1091f078367c72edcc7cf23ef51b590f]
class IFluid--><g id="elem_IFluid"><rect codeLine="43" fill="#F1F1F1" height="64.2969" id="IFluid" rx="2.5" ry="2.5" style="stroke:#181818;stroke-width:0.5;" width="112" x="394" y="672.5"/><ellipse cx="428.8" cy="688.5" fill="#B4A7E5" rx="11" ry="11" style="stroke:#181818;stroke-width:1.0;"/><path d="M424.7219,684.2656 L424.7219,682.1094 L432.1125,682.1094 L432.1125,684.2656 L429.6438,684.2656 L429.6438,692.3438 L432.1125,692.3438 L432.1125,694.5 L424.7219,694.5 L424.7219,692.3438 L427.1906,692.3438 L427.1906,684.2656 L424.7219,684.2656 Z " fill="#000000"/><text fill="#000000" font-family="sans-serif" font-size="14" font-style="italic" lengthAdjust="spacing" textLength="36" x="447.2" y="693.3467">IFluid</text><line style="stroke:#181818;stroke-width:0.5;" x1="395" x2="505" y1="704.5" y2="704.5"/><line style="stroke:#181818;stroke-width:0.5;" x1="395" x2="505" y1="712.5" y2="712.5"/><ellipse cx="405" cy="726.1484" fill="#84BE84" rx="3" ry="3" style="stroke:#038048;stroke-width:1.0;"/><text fill="#000000" font-family="sans-serif" font-size="14" lengthAdjust="spacing" textLength="86" x="414" y="729.4951">void delete()</text></g><!--MD5=[7dccf8acad80f5a6fb377496fb951189]
class ISwitch--><g id="elem_ISwitch"><rect codeLine="47" fill="#F1F1F1" height="80.5938" id="ISwitch" rx="2.5" ry="2.5" style="stroke:#181818;stroke-width:0.5;" width="167" x="21.5" y="376.5"/><ellipse cx="76.25" cy="392.5" fill="#B4A7E5" rx="11" ry="11" style="stroke:#181818;stroke-width:1.0;"/><path d="M72.1719,388.2656 L72.1719,386.1094 L79.5625,386.1094 L79.5625,388.2656 L77.0938,388.2656 L77.0938,396.3438 L79.5625,396.3438 L79.5625,398.5 L72.1719,398.5 L72.1719,396.3438 L74.6406,396.3438 L74.6406,388.2656 L72.1719,388.2656 Z " fill="#000000"/><text fill="#000000" font-family="sans-serif" font-size="14" font-style="italic" lengthAdjust="spacing" textLength="49" x="96.75" y="397.3467">ISwitch</text><line style="stroke:#181818;stroke-width:0.5;" x1="22.5" x2="187.5" y1="408.5" y2="408.5"/><line style="stroke:#181818;stroke-width:0.5;" x1="22.5" x2="187.5" y1="416.5" y2="416.5"/><ellipse cx="32.5" cy="430.1484" fill="#84BE84" rx="3" ry="3" style="stroke:#038048;stroke-width:1.0;"/><text fill="#000000" font-family="sans-serif" font-size="14" lengthAdjust="spacing" textLength="141" x="41.5" y="433.4951">ActionState turnOn()</text><ellipse cx="32.5" cy="446.4453" fill="#84BE84" rx="3" ry="3" style="stroke:#038048;stroke-width:1.0;"/><text fill="#000000" font-family="sans-serif" font-size="14" lengthAdjust="spacing" textLength="140" x="41.5" y="449.792">ActionState turnOff()</text></g><!--MD5=[55834589e3c44a968e694303fa2e406e]
class ILightSource--><g id="elem_ILightSource"><rect codeLine="52" fill="#F1F1F1" height="48" id="ILightSource" rx="2.5" ry="2.5" style="stroke:#181818;stroke-width:0.5;" width="119" x="239.5" y="680.5"/><ellipse cx="254.5" cy="696.5" fill="#B4A7E5" rx="11" ry="11" style="stroke:#181818;stroke-width:1.0;"/><path d="M250.4219,692.2656 L250.4219,690.1094 L257.8125,690.1094 L257.8125,692.2656 L255.3438,692.2656 L255.3438,700.3438 L257.8125,700.3438 L257.8125,702.5 L250.4219,702.5 L250.4219,700.3438 L252.8906,700.3438 L252.8906,692.2656 L250.4219,692.2656 Z " fill="#000000"/><text fill="#000000" font-family="sans-serif" font-size="14" font-style="italic" lengthAdjust="spacing" textLength="87" x="268.5" y="701.3467">ILightSource</text><line style="stroke:#181818;stroke-width:0.5;" x1="240.5" x2="357.5" y1="712.5" y2="712.5"/><line style="stroke:#181818;stroke-width:0.5;" x1="240.5" x2="357.5" y1="720.5" y2="720.5"/></g><!--MD5=[3ddab6fe200e1fab5e0a3dfeb65eb118]
class IReadable--><g id="elem_IReadable"><rect codeLine="55" fill="#F1F1F1" height="64.2969" id="IReadable" rx="2.5" ry="2.5" style="stroke:#181818;stroke-width:0.5;" width="150" x="54" y="672.5"/><ellipse cx="91.05" cy="688.5" fill="#B4A7E5" rx="11" ry="11" style="stroke:#181818;stroke-width:1.0;"/><path d="M86.9719,684.2656 L86.9719,682.1094 L94.3625,682.1094 L94.3625,684.2656 L91.8938,684.2656 L91.8938,692.3438 L94.3625,692.3438 L94.3625,694.5 L86.9719,694.5 L86.9719,692.3438 L89.4406,692.3438 L89.4406,684.2656 L86.9719,684.2656 Z " fill="#000000"/><text fill="#000000" font-family="sans-serif" font-size="14" font-style="italic" lengthAdjust="spacing" textLength="69" x="109.95" y="693.3467">IReadable</text><line style="stroke:#181818;stroke-width:0.5;" x1="55" x2="203" y1="704.5" y2="704.5"/><line style="stroke:#181818;stroke-width:0.5;" x1="55" x2="203" y1="712.5" y2="712.5"/><ellipse cx="65" cy="726.1484" fill="#84BE84" rx="3" ry="3" style="stroke:#038048;stroke-width:1.0;"/><text fill="#000000" font-family="sans-serif" font-size="14" lengthAdjust="spacing" textLength="124" x="74" y="729.4951">ActionState read()</text></g><!--MD5=[ac4ed53d62c052f2559b4a24fbe57604]
class IWearable--><g id="elem_IWearable"><rect codeLine="59" fill="#F1F1F1" height="80.5938" id="IWearable" rx="2.5" ry="2.5" style="stroke:#181818;stroke-width:0.5;" width="170" x="953" y="664"/><ellipse cx="999.25" cy="680" fill="#B4A7E5" rx="11" ry="11" style="stroke:#181818;stroke-width:1.0;"/><path d="M995.1719,675.7656 L995.1719,673.6094 L1002.5625,673.6094 L1002.5625,675.7656 L1000.0938,675.7656 L1000.0938,683.8438 L1002.5625,683.8438 L1002.5625,686 L995.1719,686 L995.1719,683.8438 L997.6406,683.8438 L997.6406,675.7656 L995.1719,675.7656 Z " fill="#000000"/><text fill="#000000" font-family="sans-serif" font-size="14" font-style="italic" lengthAdjust="spacing" textLength="69" x="1019.75" y="684.8467">IWearable</text><line style="stroke:#181818;stroke-width:0.5;" x1="954" x2="1122" y1="696" y2="696"/><line style="stroke:#181818;stroke-width:0.5;" x1="954" x2="1122" y1="704" y2="704"/><ellipse cx="964" cy="717.6484" fill="#84BE84" rx="3" ry="3" style="stroke:#038048;stroke-width:1.0;"/><text fill="#000000" font-family="sans-serif" font-size="14" lengthAdjust="spacing" textLength="126" x="973" y="720.9951">ActionState wear()</text><ellipse cx="964" cy="733.9453" fill="#84BE84" rx="3" ry="3" style="stroke:#038048;stroke-width:1.0;"/><text fill="#000000" font-family="sans-serif" font-size="14" lengthAdjust="spacing" textLength="144" x="973" y="737.292">ActionState unwear()</text></g><!--MD5=[7e4d9a257a8d9c1300a1e7f535e1676a]
class BasicItem--><g id="elem_BasicItem"><rect codeLine="64" fill="#F1F1F1" height="64.2969" id="BasicItem" rx="2.5" ry="2.5" style="stroke:#181818;stroke-width:0.5;" width="151" x="541.5" y="672.5"/><ellipse cx="579.9" cy="688.5" fill="#ADD1B2" rx="11" ry="11" style="stroke:#181818;stroke-width:1.0;"/><path d="M582.8688,694.1406 Q582.2906,694.4375 581.65,694.5781 Q581.0094,694.7344 580.3063,694.7344 Q577.8063,694.7344 576.4781,693.0938 Q575.1656,691.4375 575.1656,688.3125 Q575.1656,685.1875 576.4781,683.5313 Q577.8063,681.875 580.3063,681.875 Q581.0094,681.875 581.65,682.0313 Q582.3063,682.1875 582.8688,682.4844 L582.8688,685.2031 Q582.2438,684.625 581.65,684.3594 Q581.0563,684.0781 580.4313,684.0781 Q579.0875,684.0781 578.4,685.1563 Q577.7125,686.2188 577.7125,688.3125 Q577.7125,690.4063 578.4,691.4844 Q579.0875,692.5469 580.4313,692.5469 Q581.0563,692.5469 581.65,692.2813 Q582.2438,692 582.8688,691.4219 L582.8688,694.1406 Z " fill="#000000"/><text fill="#000000" font-family="sans-serif" font-size="14" lengthAdjust="spacing" textLength="67" x="599.1" y="693.3467">BasicItem</text><line style="stroke:#181818;stroke-width:0.5;" x1="542.5" x2="691.5" y1="704.5" y2="704.5"/><rect fill="none" height="6" style="stroke:#C82930;stroke-width:1.0;" width="6" x="549.5" y="715.1484"/><text fill="#000000" font-family="sans-serif" font-size="14" lengthAdjust="spacing" textLength="125" x="561.5" y="721.4951">boolean pickedUp</text><line style="stroke:#181818;stroke-width:0.5;" x1="542.5" x2="691.5" y1="728.7969" y2="728.7969"/></g><!--MD5=[cef8bb22765892522186319c2a3ca385]
class FillableItem--><g id="elem_FillableItem"><rect codeLine="69" fill="#F1F1F1" height="96.8906" id="FillableItem" rx="2.5" ry="2.5" style="stroke:#181818;stroke-width:0.5;" width="203" x="612.5" y="805"/><ellipse cx="671.75" cy="821" fill="#ADD1B2" rx="11" ry="11" style="stroke:#181818;stroke-width:1.0;"/><path d="M674.7188,826.6406 Q674.1406,826.9375 673.5,827.0781 Q672.8594,827.2344 672.1563,827.2344 Q669.6563,827.2344 668.3281,825.5938 Q667.0156,823.9375 667.0156,820.8125 Q667.0156,817.6875 668.3281,816.0313 Q669.6563,814.375 672.1563,814.375 Q672.8594,814.375 673.5,814.5313 Q674.1563,814.6875 674.7188,814.9844 L674.7188,817.7031 Q674.0938,817.125 673.5,816.8594 Q672.9063,816.5781 672.2813,816.5781 Q670.9375,816.5781 670.25,817.6563 Q669.5625,818.7188 669.5625,820.8125 Q669.5625,822.9063 670.25,823.9844 Q670.9375,825.0469 672.2813,825.0469 Q672.9063,825.0469 673.5,824.7813 Q674.0938,824.5 674.7188,823.9219 L674.7188,826.6406 Z " fill="#000000"/><text fill="#000000" font-family="sans-serif" font-size="14" lengthAdjust="spacing" textLength="76" x="692.25" y="825.8467">FillableItem</text><line style="stroke:#181818;stroke-width:0.5;" x1="613.5" x2="814.5" y1="837" y2="837"/><rect fill="none" height="6" style="stroke:#C82930;stroke-width:1.0;" width="6" x="620.5" y="847.6484"/><text fill="#000000" font-family="sans-serif" font-size="14" lengthAdjust="spacing" textLength="91" x="632.5" y="853.9951">boolean filled</text><rect fill="none" height="6" style="stroke:#C82930;stroke-width:1.0;" width="6" x="620.5" y="863.9453"/><text fill="#000000" font-family="sans-serif" font-size="14" lengthAdjust="spacing" textLength="134" x="632.5" y="870.292">String eligibleItemId</text><rect fill="none" height="6" style="stroke:#C82930;stroke-width:1.0;" width="6" x="620.5" y="880.2422"/><text fill="#000000" font-family="sans-serif" font-size="14" lengthAdjust="spacing" textLength="177" x="632.5" y="886.5889">AbstractEntity eligibleItem</text><line style="stroke:#181818;stroke-width:0.5;" x1="613.5" x2="814.5" y1="893.8906" y2="893.8906"/></g><!--MD5=[e47254082889fd3a4b8e1de464f4dd37]
class FluidItem--><g id="elem_FluidItem"><rect codeLine="75" fill="#F1F1F1" height="48" id="FluidItem" rx="2.5" ry="2.5" style="stroke:#181818;stroke-width:0.5;" width="94" x="483" y="829.5"/><ellipse cx="498" cy="845.5" fill="#ADD1B2" rx="11" ry="11" style="stroke:#181818;stroke-width:1.0;"/><path d="M500.9688,851.1406 Q500.3906,851.4375 499.75,851.5781 Q499.1094,851.7344 498.4063,851.7344 Q495.9063,851.7344 494.5781,850.0938 Q493.2656,848.4375 493.2656,845.3125 Q493.2656,842.1875 494.5781,840.5313 Q495.9063,838.875 498.4063,838.875 Q499.1094,838.875 499.75,839.0313 Q500.4063,839.1875 500.9688,839.4844 L500.9688,842.2031 Q500.3438,841.625 499.75,841.3594 Q499.1563,841.0781 498.5313,841.0781 Q497.1875,841.0781 496.5,842.1563 Q495.8125,843.2188 495.8125,845.3125 Q495.8125,847.4063 496.5,848.4844 Q497.1875,849.5469 498.5313,849.5469 Q499.1563,849.5469 499.75,849.2813 Q500.3438,849 500.9688,848.4219 L500.9688,851.1406 Z " fill="#000000"/><text fill="#000000" font-family="sans-serif" font-size="14" lengthAdjust="spacing" textLength="62" x="512" y="850.3467">FluidItem</text><line style="stroke:#181818;stroke-width:0.5;" x1="484" x2="576" y1="861.5" y2="861.5"/><line style="stroke:#181818;stroke-width:0.5;" x1="484" x2="576" y1="869.5" y2="869.5"/></g><!--MD5=[21eb1ed33fd5f824cebf62ffd1b010aa]
class LightSourceItem--><g id="elem_LightSourceItem"><rect codeLine="78" fill="#F1F1F1" height="96.8906" id="LightSourceItem" rx="2.5" ry="2.5" style="stroke:#181818;stroke-width:0.5;" width="185" x="262.5" y="805"/><ellipse cx="295.95" cy="821" fill="#ADD1B2" rx="11" ry="11" style="stroke:#181818;stroke-width:1.0;"/><path d="M298.9188,826.6406 Q298.3406,826.9375 297.7,827.0781 Q297.0594,827.2344 296.3563,827.2344 Q293.8563,827.2344 292.5281,825.5938 Q291.2156,823.9375 291.2156,820.8125 Q291.2156,817.6875 292.5281,816.0313 Q293.8563,814.375 296.3563,814.375 Q297.0594,814.375 297.7,814.5313 Q298.3563,814.6875 298.9188,814.9844 L298.9188,817.7031 Q298.2938,817.125 297.7,816.8594 Q297.1063,816.5781 296.4813,816.5781 Q295.1375,816.5781 294.45,817.6563 Q293.7625,818.7188 293.7625,820.8125 Q293.7625,822.9063 294.45,823.9844 Q295.1375,825.0469 296.4813,825.0469 Q297.1063,825.0469 297.7,824.7813 Q298.2938,824.5 298.9188,823.9219 L298.9188,826.6406 Z " fill="#000000"/><text fill="#000000" font-family="sans-serif" font-size="14" lengthAdjust="spacing" textLength="112" x="314.05" y="825.8467">LightSourceItem</text><line style="stroke:#181818;stroke-width:0.5;" x1="263.5" x2="446.5" y1="837" y2="837"/><rect fill="none" height="6" style="stroke:#C82930;stroke-width:1.0;" width="6" x="270.5" y="847.6484"/><text fill="#000000" font-family="sans-serif" font-size="14" lengthAdjust="spacing" textLength="78" x="282.5" y="853.9951">boolean on</text><rect fill="none" height="6" style="stroke:#C82930;stroke-width:1.0;" width="6" x="270.5" y="863.9453"/><text fill="#000000" font-family="sans-serif" font-size="14" lengthAdjust="spacing" textLength="144" x="282.5" y="870.292">String requiredItemId</text><rect fill="none" height="6" style="stroke:#C82930;stroke-width:1.0;" width="6" x="270.5" y="880.2422"/><text fill="#000000" font-family="sans-serif" font-size="14" lengthAdjust="spacing" textLength="159" x="282.5" y="886.5889">BasicItem requiredItem</text><line style="stroke:#181818;stroke-width:0.5;" x1="263.5" x2="446.5" y1="893.8906" y2="893.8906"/></g><!--MD5=[3f064e9053a4ba5f5f367fc0e82904f0]
class ReadableItem--><g id="elem_ReadableItem"><rect codeLine="84" fill="#F1F1F1" height="64.2969" id="ReadableItem" rx="2.5" ry="2.5" style="stroke:#181818;stroke-width:0.5;" width="131" x="96.5" y="821.5"/><ellipse cx="113.3" cy="837.5" fill="#ADD1B2" rx="11" ry="11" style="stroke:#181818;stroke-width:1.0;"/><path d="M116.2688,843.1406 Q115.6906,843.4375 115.05,843.5781 Q114.4094,843.7344 113.7063,843.7344 Q111.2063,843.7344 109.8781,842.0938 Q108.5656,840.4375 108.5656,837.3125 Q108.5656,834.1875 109.8781,832.5313 Q111.2063,830.875 113.7063,830.875 Q114.4094,830.875 115.05,831.0313 Q115.7063,831.1875 116.2688,831.4844 L116.2688,834.2031 Q115.6438,833.625 115.05,833.3594 Q114.4563,833.0781 113.8313,833.0781 Q112.4875,833.0781 111.8,834.1563 Q111.1125,835.2188 111.1125,837.3125 Q111.1125,839.4063 111.8,840.4844 Q112.4875,841.5469 113.8313,841.5469 Q114.4563,841.5469 115.05,841.2813 Q115.6438,841 116.2688,840.4219 L116.2688,843.1406 Z " fill="#000000"/><text fill="#000000" font-family="sans-serif" font-size="14" lengthAdjust="spacing" textLength="95" x="127.7" y="842.3467">ReadableItem</text><line style="stroke:#181818;stroke-width:0.5;" x1="97.5" x2="226.5" y1="853.5" y2="853.5"/><rect fill="none" height="6" style="stroke:#C82930;stroke-width:1.0;" width="6" x="104.5" y="864.1484"/><text fill="#000000" font-family="sans-serif" font-size="14" lengthAdjust="spacing" textLength="105" x="116.5" y="870.4951">String readText</text><line style="stroke:#181818;stroke-width:0.5;" x1="97.5" x2="226.5" y1="877.7969" y2="877.7969"/></g><!--MD5=[18fc91b9dae33714331d91cd09d840b5]
class WearableItem--><g id="elem_WearableItem"><rect codeLine="88" fill="#F1F1F1" height="64.2969" id="WearableItem" rx="2.5" ry="2.5" style="stroke:#181818;stroke-width:0.5;" width="126" x="851" y="821.5"/><ellipse cx="866" cy="837.5" fill="#ADD1B2" rx="11" ry="11" style="stroke:#181818;stroke-width:1.0;"/><path d="M868.9688,843.1406 Q868.3906,843.4375 867.75,843.5781 Q867.1094,843.7344 866.4063,843.7344 Q863.9063,843.7344 862.5781,842.0938 Q861.2656,840.4375 861.2656,837.3125 Q861.2656,834.1875 862.5781,832.5313 Q863.9063,830.875 866.4063,830.875 Q867.1094,830.875 867.75,831.0313 Q868.4063,831.1875 868.9688,831.4844 L868.9688,834.2031 Q868.3438,833.625 867.75,833.3594 Q867.1563,833.0781 866.5313,833.0781 Q865.1875,833.0781 864.5,834.1563 Q863.8125,835.2188 863.8125,837.3125 Q863.8125,839.4063 864.5,840.4844 Q865.1875,841.5469 866.5313,841.5469 Q867.1563,841.5469 867.75,841.2813 Q868.3438,841 868.9688,840.4219 L868.9688,843.1406 Z " fill="#000000"/><text fill="#000000" font-family="sans-serif" font-size="14" lengthAdjust="spacing" textLength="94" x="880" y="842.3467">WearableItem</text><line style="stroke:#181818;stroke-width:0.5;" x1="852" x2="976" y1="853.5" y2="853.5"/><rect fill="none" height="6" style="stroke:#C82930;stroke-width:1.0;" width="6" x="859" y="864.1484"/><text fill="#000000" font-family="sans-serif" font-size="14" lengthAdjust="spacing" textLength="94" x="871" y="870.4951">boolean worn</text><line style="stroke:#181818;stroke-width:0.5;" x1="852" x2="976" y1="877.7969" y2="877.7969"/></g><!--MD5=[f6206d2ec51ac58d808468fe0a74c9c8]
reverse link GameComponent to AbstractEntity--><g id="link_GameComponent_AbstractEntity"><path d="M588,190.42 C588,202.88 588,216.13 588,229.72 " fill="none" id="GameComponent-backto-AbstractEntity" style="stroke:#181818;stroke-width:1.0;"/><polygon fill="none" points="581,190.25,588,170.25,595,190.25,581,190.25" style="stroke:#181818;stroke-width:1.0;"/></g><!--MD5=[59813f7c323a05fff28ba02330a66c8b]
reverse link ISwitch to ILightSource--><g id="link_ISwitch_ILightSource"><path d="M131.68,475.91 C150.26,513.8 176.87,563.58 206,604 C226.46,632.39 254.35,661.21 274.24,680.47 " fill="none" id="ISwitch-backto-ILightSource" style="stroke:#181818;stroke-width:1.0;"/><polygon fill="none" points="125.34,478.89,122.97,457.83,137.95,472.81,125.34,478.89" style="stroke:#181818;stroke-width:1.0;"/></g><!--MD5=[bfef2e9c944fc667d398ef81206cda32]
reverse link IPickupable to IWearable--><g id="link_IPickupable_IWearable"><path d="M1064.27,469.09 C1058.02,524.85 1048.15,612.96 1042.45,663.78 " fill="none" id="IPickupable-backto-IWearable" style="stroke:#181818;stroke-width:1.0;"/><polygon fill="none" points="1057.33,468.19,1066.51,449.1,1071.24,469.75,1057.33,468.19" style="stroke:#181818;stroke-width:1.0;"/></g><!--MD5=[689f7d4045cad87bf0d9c384e9ed275e]
reverse link AbstractEntity to BasicItem--><g id="link_AbstractEntity_BasicItem"><path d="M608.94,624.2 C610.81,642.59 612.5,659.22 613.85,672.44 " fill="none" id="AbstractEntity-backto-BasicItem" style="stroke:#181818;stroke-width:1.0;"/><polygon fill="none" points="601.95,624.65,606.9,604.05,615.88,623.24,601.95,624.65" style="stroke:#181818;stroke-width:1.0;"/></g><!--MD5=[94405c6dd161938a93982dfd785c872b]
reverse link IPickupable to BasicItem--><g id="link_IPickupable_BasicItem"><path d="M1055.83,468.38 C1041.24,510.91 1014.28,570.16 970,604 C876.12,675.75 823.43,627.65 711,664 C703.25,666.51 695.25,669.39 687.34,672.43 " fill="none" id="IPickupable-backto-BasicItem" style="stroke:#181818;stroke-width:1.0;stroke-dasharray:7.0,7.0;"/><polygon fill="none" points="1049.17,466.22,1061.93,449.3,1062.5,470.49,1049.17,466.22" style="stroke:#181818;stroke-width:1.0;"/></g><!--MD5=[278ad7d9da0e60b824866efc5106a379]
reverse link BasicItem to FillableItem--><g id="link_BasicItem_FillableItem"><path d="M648.73,753.59 C659.59,770.05 671.73,788.45 682.57,804.87 " fill="none" id="BasicItem-backto-FillableItem" style="stroke:#181818;stroke-width:1.0;"/><polygon fill="none" points="642.74,757.22,637.57,736.67,654.43,749.51,642.74,757.22" style="stroke:#181818;stroke-width:1.0;"/></g><!--MD5=[618bad37fe46e4eba3c6aac7777404e7]
reverse link IFillable to FillableItem--><g id="link_IFillable_FillableItem"><path d="M767.4,754.38 C758.55,770.63 748.72,788.71 739.92,804.87 " fill="none" id="IFillable-backto-FillableItem" style="stroke:#181818;stroke-width:1.0;stroke-dasharray:7.0,7.0;"/><polygon fill="none" points="761.33,750.9,777.03,736.67,773.62,757.59,761.33,750.9" style="stroke:#181818;stroke-width:1.0;"/></g><!--MD5=[e4c603a58ec4b818912cd9caaac81cd1]
reverse link BasicItem to FluidItem--><g id="link_BasicItem_FluidItem"><path d="M588.26,754.06 C573.33,779.29 555.77,808.96 543.86,829.09 " fill="none" id="BasicItem-backto-FluidItem" style="stroke:#181818;stroke-width:1.0;"/><polygon fill="none" points="582.34,750.32,598.55,736.67,594.39,757.45,582.34,750.32" style="stroke:#181818;stroke-width:1.0;"/></g><!--MD5=[cbb60d7d688159c380ce38e036be4c5a]
reverse link IFluid to FluidItem--><g id="link_IFluid_FluidItem"><path d="M476.63,754.43 C490.31,779.57 506.36,809.06 517.26,829.09 " fill="none" id="IFluid-backto-FluidItem" style="stroke:#181818;stroke-width:1.0;stroke-dasharray:7.0,7.0;"/><polygon fill="none" points="470.38,757.59,466.97,736.67,482.67,750.9,470.38,757.59" style="stroke:#181818;stroke-width:1.0;"/></g><!--MD5=[06c0e91405e9d2b22a7b846fb757bd4e]
reverse link BasicItem to LightSourceItem--><g id="link_BasicItem_LightSourceItem"><path d="M532.75,745.6 C510.77,756.61 487.29,768.87 466,781 C452.95,788.43 439.32,796.74 426.25,805 " fill="none" id="BasicItem-backto-LightSourceItem" style="stroke:#181818;stroke-width:1.0;"/><polygon fill="none" points="529.75,739.28,550.78,736.68,535.96,751.82,529.75,739.28" style="stroke:#181818;stroke-width:1.0;"/></g><!--MD5=[007aaf939878bfdb371020dddbe1ef7f]
reverse link ILightSource to LightSourceItem--><g id="link_ILightSource_LightSourceItem"><path d="M315.09,747.74 C321.9,765.63 329.88,786.55 336.9,804.98 " fill="none" id="ILightSource-backto-LightSourceItem" style="stroke:#181818;stroke-width:1.0;stroke-dasharray:7.0,7.0;"/><polygon fill="none" points="308.45,749.97,307.87,728.79,321.53,744.99,308.45,749.97" style="stroke:#181818;stroke-width:1.0;"/></g><!--MD5=[b8880fbf8a4c2ac3209d2a47250c1344]
reverse link BasicItem to ReadableItem--><g id="link_BasicItem_ReadableItem"><path d="M530.86,743.03 C528.56,743.72 526.27,744.38 524,745 C403.34,777.74 359.18,730.05 245,781 C224.16,790.3 204.62,806.59 189.74,821.28 " fill="none" id="BasicItem-backto-ReadableItem" style="stroke:#181818;stroke-width:1.0;"/><polygon fill="none" points="528.77,736.34,549.96,736.51,533.29,749.59,528.77,736.34" style="stroke:#181818;stroke-width:1.0;"/></g><!--MD5=[f9fbbe3f5a858ba1d8842ca2abd3543e]
reverse link IReadable to ReadableItem--><g id="link_IReadable_ReadableItem"><path d="M140.39,756.26 C145.25,777.9 150.77,802.47 155.01,821.37 " fill="none" id="IReadable-backto-ReadableItem" style="stroke:#181818;stroke-width:1.0;stroke-dasharray:7.0,7.0;"/><polygon fill="none" points="133.55,757.72,136,736.67,147.21,754.66,133.55,757.72" style="stroke:#181818;stroke-width:1.0;"/></g><!--MD5=[8e5df25cffee13f8acf3aec379b29812]
reverse link BasicItem to WearableItem--><g id="link_BasicItem_WearableItem"><path d="M707.54,743.76 C708.7,744.18 709.85,744.59 711,745 C764.25,763.98 783.52,753.65 833,781 C852.04,791.53 870.46,807.2 884.91,821.18 " fill="none" id="BasicItem-backto-WearableItem" style="stroke:#181818;stroke-width:1.0;"/><polygon fill="none" points="704.73,750.18,688.53,736.52,709.71,737.09,704.73,750.18" style="stroke:#181818;stroke-width:1.0;"/></g><!--MD5=[1825250d9e7524d45d1b7fb2a56a6d2e]
reverse link IWearable to WearableItem--><g id="link_IWearable_WearableItem"><path d="M991.42,760.72 C974.22,781.11 955.33,803.51 940.51,821.07 " fill="none" id="IWearable-backto-WearableItem" style="stroke:#181818;stroke-width:1.0;stroke-dasharray:7.0,7.0;"/><polygon fill="none" points="986.2,756.05,1004.44,745.28,996.9,765.08,986.2,756.05" style="stroke:#181818;stroke-width:1.0;"/></g><!--MD5=[88666e83a2a6cd2ea099805f06b2cfb8]
@startuml
package "entity pickupable" #DDDDDD {
    abstract class GameComponent {
        - String id
        - String name
        - String description
        + {abstract} void saveOnDb()
        # void setKnownValuesOnStatement(PreparedStatement stm)
    }
    
    abstract class AbstractEntity extends GameComponent {
        - Set<String> alias
        - GameComponent parent
        - PlayableRoom closestRoomParent
        - List<ObjectEvent> events
        - List<String> requiredWearedItemsIdToInteract
        - List<IWearable> requiredWearedItemsToInteract
        - String failedInteractionMessage
        - boolean destroyFromInventory
        + void lookAt()
        + void processReferences(Multimap<String, AbstractEntity> objects, List<AbstractRoom> rooms)
        # void triggerEvent(EventType type)
        # boolean canInteract()
        # void loadLocation(ResultSet resultSet, List<AbstractRoom> allRooms, Inventory inventory)
        - void processRoomParent(List<AbstractRoom> rooms)
        - void processEventReferences(Multimap<String, AbstractEntity> objects, List<AbstractRoom> rooms)
        - void loadObjEvents()
        - void saveEventsOnDB()
        - void saveAliasesOnDB()
        - void saveRequiredWearedItemsOnDB()
        - void saveExternalsOnDB()
    }
    
    
    
    interface IPickupable {
        + ActionState pickup()
    }
    
    interface IFillable {
        + ActionState fill()
    }
    
    interface IFluid {
        + void delete()
    }
    
    interface ISwitch {
        + ActionState turnOn()
        + ActionState turnOff()
    }
    
    interface ILightSource extends ISwitch {
    }
    
    interface IReadable {
        + ActionState read()
    }
    
    interface IWearable extends IPickupable {
        + ActionState wear()
        + ActionState unwear()
    }
    
    class BasicItem extends AbstractEntity implements IPickupable {
        - boolean pickedUp
    }
    
    together {
        class FillableItem extends BasicItem implements IFillable {
            - boolean filled
            - String eligibleItemId
            - AbstractEntity eligibleItem
        }
        
        class FluidItem extends BasicItem implements IFluid {
        }
        
        class LightSourceItem extends BasicItem implements ILightSource {
            - boolean on
            - String requiredItemId
            - BasicItem requiredItem
        }
        
        class ReadableItem extends BasicItem implements IReadable {
            - String readText
        }
        
        class WearableItem extends BasicItem implements IWearable{
            - boolean worn
        }
    }
}
@enduml

PlantUML version 1.2022.7(Mon Aug 22 19:01:30 CEST 2022)
(GPL source distribution)
Java Runtime: OpenJDK Runtime Environment
JVM: OpenJDK 64-Bit Server VM
Default Encoding: UTF-8
Language: it
Country: IT
--></g></svg>