<?xml version="1.0" encoding="UTF-8" standalone="no"?><svg xmlns="http://www.w3.org/2000/svg" xmlns:xlink="http://www.w3.org/1999/xlink" contentStyleType="text/css" height="1160px" preserveAspectRatio="none" style="width:802px;height:1160px;background:#FFFFFF;" version="1.1" viewBox="0 0 802 1160" width="802px" zoomAndPan="magnify"><defs/><g><!--MD5=[f30f96a8e3b809a1be41c67afd879ce1]
cluster room--><g id="cluster_room"><path d="M8.5,6 L50.5,6 A3.75,3.75 0 0 1 53,8.5 L60,28.2969 L792.5,28.2969 A2.5,2.5 0 0 1 795,30.7969 L795,1150.5 A2.5,2.5 0 0 1 792.5,1153 L8.5,1153 A2.5,2.5 0 0 1 6,1150.5 L6,8.5 A2.5,2.5 0 0 1 8.5,6 " fill="#DDDDDD" style="stroke:#000000;stroke-width:1.5;"/><line style="stroke:#000000;stroke-width:1.5;" x1="6" x2="60" y1="28.2969" y2="28.2969"/><text fill="#000000" font-family="sans-serif" font-size="14" font-weight="bold" lengthAdjust="spacing" textLength="41" x="10" y="20.9951">room</text></g><!--MD5=[299b79098022c64b03f396ac59ef46ab]
class GameComponent--><g id="elem_GameComponent"><rect codeLine="2" fill="#F1F1F1" height="129.4844" id="GameComponent" rx="2.5" ry="2.5" style="stroke:#181818;stroke-width:0.5;" width="440" x="160" y="41"/><ellipse cx="314.25" cy="57" fill="#A9DCDF" rx="11" ry="11" style="stroke:#181818;stroke-width:1.0;"/><path d="M314.3594,52.3438 L313.2031,57.4219 L315.5313,57.4219 L314.3594,52.3438 Z M312.875,50.1094 L315.8594,50.1094 L319.2188,62.5 L316.7656,62.5 L316,59.4375 L312.7188,59.4375 L311.9688,62.5 L309.5313,62.5 L312.875,50.1094 Z " fill="#000000"/><text fill="#000000" font-family="sans-serif" font-size="14" font-style="italic" lengthAdjust="spacing" textLength="123" x="334.75" y="61.8467">GameComponent</text><line style="stroke:#181818;stroke-width:0.5;" x1="161" x2="599" y1="73" y2="73"/><rect fill="none" height="6" style="stroke:#C82930;stroke-width:1.0;" width="6" x="168" y="83.6484"/><text fill="#000000" font-family="sans-serif" font-size="14" lengthAdjust="spacing" textLength="56" x="180" y="89.9951">String id</text><rect fill="none" height="6" style="stroke:#C82930;stroke-width:1.0;" width="6" x="168" y="99.9453"/><text fill="#000000" font-family="sans-serif" font-size="14" lengthAdjust="spacing" textLength="83" x="180" y="106.292">String name</text><rect fill="none" height="6" style="stroke:#C82930;stroke-width:1.0;" width="6" x="168" y="116.2422"/><text fill="#000000" font-family="sans-serif" font-size="14" lengthAdjust="spacing" textLength="121" x="180" y="122.5889">String description</text><line style="stroke:#181818;stroke-width:0.5;" x1="161" x2="599" y1="129.8906" y2="129.8906"/><ellipse cx="171" cy="143.5391" fill="#84BE84" rx="3" ry="3" style="stroke:#038048;stroke-width:1.0;"/><text fill="#000000" font-family="sans-serif" font-size="14" font-style="italic" lengthAdjust="spacing" textLength="115" x="180" y="146.8857">void saveOnDb()</text><polygon fill="#FFFF44" points="171,154.8359,175,158.8359,171,162.8359,167,158.8359" style="stroke:#B38D22;stroke-width:1.0;"/><text fill="#000000" font-family="sans-serif" font-size="14" lengthAdjust="spacing" textLength="414" x="180" y="163.1826">void setKnownValuesOnStatement(PreparedStatement stm)</text></g><!--MD5=[6d112ea2590d2ba8fe5184eea8cb8592]
class AbstractRoom--><g id="elem_AbstractRoom"><rect codeLine="10" fill="#F1F1F1" height="80.5938" id="AbstractRoom" rx="2.5" ry="2.5" style="stroke:#181818;stroke-width:0.5;" width="245" x="257.5" y="230"/><ellipse cx="326.75" cy="246" fill="#A9DCDF" rx="11" ry="11" style="stroke:#181818;stroke-width:1.0;"/><path d="M326.8594,241.3438 L325.7031,246.4219 L328.0313,246.4219 L326.8594,241.3438 Z M325.375,239.1094 L328.3594,239.1094 L331.7188,251.5 L329.2656,251.5 L328.5,248.4375 L325.2188,248.4375 L324.4688,251.5 L322.0313,251.5 L325.375,239.1094 Z " fill="#000000"/><text fill="#000000" font-family="sans-serif" font-size="14" font-style="italic" lengthAdjust="spacing" textLength="98" x="347.25" y="250.8467">AbstractRoom</text><line style="stroke:#181818;stroke-width:0.5;" x1="258.5" x2="501.5" y1="262" y2="262"/><rect fill="none" height="6" style="stroke:#C82930;stroke-width:1.0;" width="6" x="265.5" y="272.6484"/><text fill="#000000" font-family="sans-serif" font-size="14" lengthAdjust="spacing" textLength="100" x="277.5" y="278.9951">String imgPath</text><line style="stroke:#181818;stroke-width:0.5;" x1="258.5" x2="501.5" y1="286.2969" y2="286.2969"/><polygon fill="#FFFF44" points="268.5,294.9453,272.5,298.9453,268.5,302.9453,264.5,298.9453" style="stroke:#B38D22;stroke-width:1.0;"/><text fill="#000000" font-family="sans-serif" font-size="14" lengthAdjust="spacing" textLength="219" x="277.5" y="303.292">void setSecondaryId(char value)</text></g><!--MD5=[eda9485342ab3682a50f38e83937e1c1]
class PlayableRoom--><g id="elem_PlayableRoom"><rect codeLine="16" fill="#F1F1F1" height="569.5" id="PlayableRoom" rx="2.5" ry="2.5" style="stroke:#181818;stroke-width:0.5;" width="474" x="281" y="371"/><ellipse cx="465.25" cy="387" fill="#ADD1B2" rx="11" ry="11" style="stroke:#181818;stroke-width:1.0;"/><path d="M468.2188,392.6406 Q467.6406,392.9375 467,393.0781 Q466.3594,393.2344 465.6563,393.2344 Q463.1563,393.2344 461.8281,391.5938 Q460.5156,389.9375 460.5156,386.8125 Q460.5156,383.6875 461.8281,382.0313 Q463.1563,380.375 465.6563,380.375 Q466.3594,380.375 467,380.5313 Q467.6563,380.6875 468.2188,380.9844 L468.2188,383.7031 Q467.5938,383.125 467,382.8594 Q466.4063,382.5781 465.7813,382.5781 Q464.4375,382.5781 463.75,383.6563 Q463.0625,384.7188 463.0625,386.8125 Q463.0625,388.9063 463.75,389.9844 Q464.4375,391.0469 465.7813,391.0469 Q466.4063,391.0469 467,390.7813 Q467.5938,390.5 468.2188,389.9219 L468.2188,392.6406 Z " fill="#000000"/><text fill="#000000" font-family="sans-serif" font-size="14" lengthAdjust="spacing" textLength="97" x="485.75" y="391.8467">PlayableRoom</text><line style="stroke:#181818;stroke-width:0.5;" x1="282" x2="754" y1="403" y2="403"/><rect fill="none" height="6" style="stroke:#C82930;stroke-width:1.0;" width="6" x="289" y="413.6484"/><text fill="#000000" font-family="sans-serif" font-size="14" lengthAdjust="spacing" textLength="142" x="301" y="419.9951">AbstractRoom south</text><rect fill="none" height="6" style="stroke:#C82930;stroke-width:1.0;" width="6" x="289" y="429.9453"/><text fill="#000000" font-family="sans-serif" font-size="14" lengthAdjust="spacing" textLength="96" x="301" y="436.292">String southId</text><rect fill="none" height="6" style="stroke:#C82930;stroke-width:1.0;" width="6" x="289" y="446.2422"/><text fill="#000000" font-family="sans-serif" font-size="14" lengthAdjust="spacing" textLength="139" x="301" y="452.5889">AbstractRoom north</text><rect fill="none" height="6" style="stroke:#C82930;stroke-width:1.0;" width="6" x="289" y="462.5391"/><text fill="#000000" font-family="sans-serif" font-size="14" lengthAdjust="spacing" textLength="93" x="301" y="468.8857">String northId</text><rect fill="none" height="6" style="stroke:#C82930;stroke-width:1.0;" width="6" x="289" y="478.8359"/><text fill="#000000" font-family="sans-serif" font-size="14" lengthAdjust="spacing" textLength="177" x="301" y="485.1826">AbstractRoom southWest</text><rect fill="none" height="6" style="stroke:#C82930;stroke-width:1.0;" width="6" x="289" y="495.1328"/><text fill="#000000" font-family="sans-serif" font-size="14" lengthAdjust="spacing" textLength="131" x="301" y="501.4795">String southWestId</text><rect fill="none" height="6" style="stroke:#C82930;stroke-width:1.0;" width="6" x="289" y="511.4297"/><text fill="#000000" font-family="sans-serif" font-size="14" lengthAdjust="spacing" textLength="174" x="301" y="517.7764">AbstractRoom northWest</text><rect fill="none" height="6" style="stroke:#C82930;stroke-width:1.0;" width="6" x="289" y="527.7266"/><text fill="#000000" font-family="sans-serif" font-size="14" lengthAdjust="spacing" textLength="128" x="301" y="534.0732">String northWestId</text><rect fill="none" height="6" style="stroke:#C82930;stroke-width:1.0;" width="6" x="289" y="544.0234"/><text fill="#000000" font-family="sans-serif" font-size="14" lengthAdjust="spacing" textLength="172" x="301" y="550.3701">AbstractRoom southEast</text><rect fill="none" height="6" style="stroke:#C82930;stroke-width:1.0;" width="6" x="289" y="560.3203"/><text fill="#000000" font-family="sans-serif" font-size="14" lengthAdjust="spacing" textLength="126" x="301" y="566.667">String southEastId</text><rect fill="none" height="6" style="stroke:#C82930;stroke-width:1.0;" width="6" x="289" y="576.6172"/><text fill="#000000" font-family="sans-serif" font-size="14" lengthAdjust="spacing" textLength="169" x="301" y="582.9639">AbstractRoom northEast</text><rect fill="none" height="6" style="stroke:#C82930;stroke-width:1.0;" width="6" x="289" y="592.9141"/><text fill="#000000" font-family="sans-serif" font-size="14" lengthAdjust="spacing" textLength="123" x="301" y="599.2607">String northEastId</text><rect fill="none" height="6" style="stroke:#C82930;stroke-width:1.0;" width="6" x="289" y="609.2109"/><text fill="#000000" font-family="sans-serif" font-size="14" lengthAdjust="spacing" textLength="132" x="301" y="615.5576">AbstractRoom east</text><rect fill="none" height="6" style="stroke:#C82930;stroke-width:1.0;" width="6" x="289" y="625.5078"/><text fill="#000000" font-family="sans-serif" font-size="14" lengthAdjust="spacing" textLength="86" x="301" y="631.8545">String eastId</text><rect fill="none" height="6" style="stroke:#C82930;stroke-width:1.0;" width="6" x="289" y="641.8047"/><text fill="#000000" font-family="sans-serif" font-size="14" lengthAdjust="spacing" textLength="135" x="301" y="648.1514">AbstractRoom west</text><rect fill="none" height="6" style="stroke:#C82930;stroke-width:1.0;" width="6" x="289" y="658.1016"/><text fill="#000000" font-family="sans-serif" font-size="14" lengthAdjust="spacing" textLength="89" x="301" y="664.4482">String westId</text><rect fill="none" height="6" style="stroke:#C82930;stroke-width:1.0;" width="6" x="289" y="674.3984"/><text fill="#000000" font-family="sans-serif" font-size="14" lengthAdjust="spacing" textLength="120" x="301" y="680.7451">AbstractRoom up</text><rect fill="none" height="6" style="stroke:#C82930;stroke-width:1.0;" width="6" x="289" y="690.6953"/><text fill="#000000" font-family="sans-serif" font-size="14" lengthAdjust="spacing" textLength="74" x="301" y="697.042">String upId</text><rect fill="none" height="6" style="stroke:#C82930;stroke-width:1.0;" width="6" x="289" y="706.9922"/><text fill="#000000" font-family="sans-serif" font-size="14" lengthAdjust="spacing" textLength="140" x="301" y="713.3389">AbstractRoom down</text><rect fill="none" height="6" style="stroke:#C82930;stroke-width:1.0;" width="6" x="289" y="723.2891"/><text fill="#000000" font-family="sans-serif" font-size="14" lengthAdjust="spacing" textLength="94" x="301" y="729.6357">String downId</text><rect fill="none" height="6" style="stroke:#C82930;stroke-width:1.0;" width="6" x="289" y="739.5859"/><text fill="#000000" font-family="sans-serif" font-size="14" lengthAdjust="spacing" textLength="197" x="301" y="745.9326">List&lt;AbstractEntity&gt; objects</text><rect fill="none" height="6" style="stroke:#C82930;stroke-width:1.0;" width="6" x="289" y="755.8828"/><text fill="#000000" font-family="sans-serif" font-size="14" lengthAdjust="spacing" textLength="123" x="301" y="762.2295">RoomEvent event</text><rect fill="none" height="6" style="stroke:#C82930;stroke-width:1.0;" width="6" x="289" y="772.1797"/><text fill="#000000" font-family="sans-serif" font-size="14" lengthAdjust="spacing" textLength="90" x="301" y="778.5264">boolean dark</text><rect fill="none" height="6" style="stroke:#C82930;stroke-width:1.0;" width="6" x="289" y="788.4766"/><text fill="#000000" font-family="sans-serif" font-size="14" lengthAdjust="spacing" textLength="156" x="301" y="794.8232">boolean darkByDefault</text><line style="stroke:#181818;stroke-width:0.5;" x1="282" x2="754" y1="802.125" y2="802.125"/><ellipse cx="292" cy="815.7734" fill="#84BE84" rx="3" ry="3" style="stroke:#038048;stroke-width:1.0;"/><text fill="#000000" font-family="sans-serif" font-size="14" lengthAdjust="spacing" textLength="232" x="301" y="819.1201">List&lt;AbstractEntity&gt; getObjects()</text><ellipse cx="292" cy="832.0703" fill="#84BE84" rx="3" ry="3" style="stroke:#038048;stroke-width:1.0;"/><text fill="#000000" font-family="sans-serif" font-size="14" lengthAdjust="spacing" textLength="315" x="301" y="835.417">List&lt;AbstractEntity&gt; getObjects(Mode mode)</text><ellipse cx="292" cy="848.3672" fill="#84BE84" rx="3" ry="3" style="stroke:#038048;stroke-width:1.0;"/><text fill="#000000" font-family="sans-serif" font-size="14" lengthAdjust="spacing" textLength="448" x="301" y="851.7139">Multimap&lt;String, AbstractEntity&gt; getObjectsAsMap(Mode mode)</text><ellipse cx="292" cy="864.6641" fill="#84BE84" rx="3" ry="3" style="stroke:#038048;stroke-width:1.0;"/><text fill="#000000" font-family="sans-serif" font-size="14" lengthAdjust="spacing" textLength="259" x="301" y="868.0107">void removeObject(AbstractEntity obj)</text><ellipse cx="292" cy="880.9609" fill="#84BE84" rx="3" ry="3" style="stroke:#038048;stroke-width:1.0;"/><text fill="#000000" font-family="sans-serif" font-size="14" lengthAdjust="spacing" textLength="297" x="301" y="884.3076">InvisibleWall getInvisibleWall(Type direction)</text><ellipse cx="292" cy="897.2578" fill="#84BE84" rx="3" ry="3" style="stroke:#038048;stroke-width:1.0;"/><text fill="#000000" font-family="sans-serif" font-size="14" lengthAdjust="spacing" textLength="288" x="301" y="900.6045">AbstractRoom getRoomAt(Type direction)</text><ellipse cx="292" cy="913.5547" fill="#84BE84" rx="3" ry="3" style="stroke:#038048;stroke-width:1.0;"/><text fill="#000000" font-family="sans-serif" font-size="14" lengthAdjust="spacing" textLength="126" x="301" y="916.9014">void triggerEvent()</text><ellipse cx="292" cy="929.8516" fill="#84BE84" rx="3" ry="3" style="stroke:#038048;stroke-width:1.0;"/><text fill="#000000" font-family="sans-serif" font-size="14" lengthAdjust="spacing" textLength="402" x="301" y="933.1982">void processRoomLighting(List&lt;AbstractEntity&gt; inventory)</text></g><!--MD5=[cdfeb248abaefe1b8410743f29ddbe87]
class CutsceneRoom--><g id="elem_CutsceneRoom"><rect codeLine="51" fill="#F1F1F1" height="96.8906" id="CutsceneRoom" rx="2.5" ry="2.5" style="stroke:#181818;stroke-width:0.5;" width="199" x="46.5" y="607"/><ellipse cx="88.05" cy="623" fill="#ADD1B2" rx="11" ry="11" style="stroke:#181818;stroke-width:1.0;"/><path d="M91.0188,628.6406 Q90.4406,628.9375 89.8,629.0781 Q89.1594,629.2344 88.4563,629.2344 Q85.9563,629.2344 84.6281,627.5938 Q83.3156,625.9375 83.3156,622.8125 Q83.3156,619.6875 84.6281,618.0313 Q85.9563,616.375 88.4563,616.375 Q89.1594,616.375 89.8,616.5313 Q90.4563,616.6875 91.0188,616.9844 L91.0188,619.7031 Q90.3938,619.125 89.8,618.8594 Q89.2063,618.5781 88.5813,618.5781 Q87.2375,618.5781 86.55,619.6563 Q85.8625,620.7188 85.8625,622.8125 Q85.8625,624.9063 86.55,625.9844 Q87.2375,627.0469 88.5813,627.0469 Q89.2063,627.0469 89.8,626.7813 Q90.3938,626.5 91.0188,625.9219 L91.0188,628.6406 Z " fill="#000000"/><text fill="#000000" font-family="sans-serif" font-size="14" lengthAdjust="spacing" textLength="108" x="107.95" y="627.8467">CutsceneRoom</text><line style="stroke:#181818;stroke-width:0.5;" x1="47.5" x2="244.5" y1="639" y2="639"/><rect fill="none" height="6" style="stroke:#C82930;stroke-width:1.0;" width="6" x="54.5" y="649.6484"/><text fill="#000000" font-family="sans-serif" font-size="14" lengthAdjust="spacing" textLength="127" x="66.5" y="655.9951">String nextRoomId</text><rect fill="none" height="6" style="stroke:#C82930;stroke-width:1.0;" width="6" x="54.5" y="665.9453"/><text fill="#000000" font-family="sans-serif" font-size="14" lengthAdjust="spacing" textLength="173" x="66.5" y="672.292">AbstractRoom nextRoom</text><rect fill="none" height="6" style="stroke:#C82930;stroke-width:1.0;" width="6" x="54.5" y="682.2422"/><text fill="#000000" font-family="sans-serif" font-size="14" lengthAdjust="spacing" textLength="128" x="66.5" y="688.5889">boolean finalRoom</text><line style="stroke:#181818;stroke-width:0.5;" x1="47.5" x2="244.5" y1="695.8906" y2="695.8906"/></g><!--MD5=[b6fc47f4e97bd919b0a4f9eb15d71e16]
class MutableRoom--><g id="elem_MutableRoom"><rect codeLine="57" fill="#F1F1F1" height="113.1875" id="MutableRoom" rx="2.5" ry="2.5" style="stroke:#181818;stroke-width:0.5;" width="272" x="382" y="1000"/><ellipse cx="465.75" cy="1016" fill="#ADD1B2" rx="11" ry="11" style="stroke:#181818;stroke-width:1.0;"/><path d="M468.7188,1021.6406 Q468.1406,1021.9375 467.5,1022.0781 Q466.8594,1022.2344 466.1563,1022.2344 Q463.6563,1022.2344 462.3281,1020.5938 Q461.0156,1018.9375 461.0156,1015.8125 Q461.0156,1012.6875 462.3281,1011.0313 Q463.6563,1009.375 466.1563,1009.375 Q466.8594,1009.375 467.5,1009.5313 Q468.1563,1009.6875 468.7188,1009.9844 L468.7188,1012.7031 Q468.0938,1012.125 467.5,1011.8594 Q466.9063,1011.5781 466.2813,1011.5781 Q464.9375,1011.5781 464.25,1012.6563 Q463.5625,1013.7188 463.5625,1015.8125 Q463.5625,1017.9063 464.25,1018.9844 Q464.9375,1020.0469 466.2813,1020.0469 Q466.9063,1020.0469 467.5,1019.7813 Q468.0938,1019.5 468.7188,1018.9219 L468.7188,1021.6406 Z " fill="#000000"/><text fill="#000000" font-family="sans-serif" font-size="14" lengthAdjust="spacing" textLength="96" x="486.25" y="1020.8467">MutableRoom</text><line style="stroke:#181818;stroke-width:0.5;" x1="383" x2="653" y1="1032" y2="1032"/><rect fill="none" height="6" style="stroke:#C82930;stroke-width:1.0;" width="6" x="390" y="1042.6484"/><text fill="#000000" font-family="sans-serif" font-size="14" lengthAdjust="spacing" textLength="170" x="402" y="1048.9951">MutableRoom newRoom</text><line style="stroke:#181818;stroke-width:0.5;" x1="383" x2="653" y1="1056.2969" y2="1056.2969"/><rect fill="#F24D5C" height="6" style="stroke:#C82930;stroke-width:1.0;" width="6" x="390" y="1066.9453"/><text fill="#000000" font-family="sans-serif" font-size="14" lengthAdjust="spacing" textLength="131" x="402" y="1073.292">void updateFields()</text><ellipse cx="393" cy="1086.2422" fill="#84BE84" rx="3" ry="3" style="stroke:#038048;stroke-width:1.0;"/><text fill="#000000" font-family="sans-serif" font-size="14" lengthAdjust="spacing" textLength="246" x="402" y="1089.5889">List&lt;AbstractRoom&gt; getAllRooms()</text><ellipse cx="393" cy="1102.5391" fill="#84BE84" rx="3" ry="3" style="stroke:#038048;stroke-width:1.0;"/><text fill="#000000" font-family="sans-serif" font-size="14" lengthAdjust="spacing" textLength="180" x="402" y="1105.8857">void updateToNewRoom()</text></g><!--MD5=[4e27d1e8680e45a4ee28c775cf7e55aa]
reverse link GameComponent to AbstractRoom--><g id="link_GameComponent_AbstractRoom"><path d="M380,190.89 C380,204.44 380,217.87 380,229.7 " fill="none" id="GameComponent-backto-AbstractRoom" style="stroke:#181818;stroke-width:1.0;"/><polygon fill="none" points="373,190.45,380,170.45,387,190.45,373,190.45" style="stroke:#181818;stroke-width:1.0;"/></g><!--MD5=[9d67c73b54ac9114c228b61c51ad3430]
reverse link AbstractRoom to PlayableRoom--><g id="link_AbstractRoom_PlayableRoom"><path d="M401.18,330.29 C405.61,342.59 410.56,356.32 415.85,371 " fill="none" id="AbstractRoom-backto-PlayableRoom" style="stroke:#181818;stroke-width:1.0;"/><polygon fill="none" points="394.44,332.23,394.25,311.05,407.61,327.49,394.44,332.23" style="stroke:#181818;stroke-width:1.0;"/></g><!--MD5=[2bde9224cd6fc4261edc7afc8821bded]
reverse link AbstractRoom to CutsceneRoom--><g id="link_AbstractRoom_CutsceneRoom"><path d="M287.71,323.39 C279.02,330.59 270.89,338.48 264,347 C200.44,425.58 168.4,542.24 154.65,606.93 " fill="none" id="AbstractRoom-backto-CutsceneRoom" style="stroke:#181818;stroke-width:1.0;"/><polygon fill="none" points="283.66,317.68,303.83,311.18,292.12,328.83,283.66,317.68" style="stroke:#181818;stroke-width:1.0;"/></g><!--MD5=[c139cf20c2e0f326736e748e4b1175fd]
reverse link PlayableRoom to MutableRoom--><g id="link_PlayableRoom_MutableRoom"><path d="M518,960.26 C518,974.63 518,987.99 518,999.9 " fill="none" id="PlayableRoom-backto-MutableRoom" style="stroke:#181818;stroke-width:1.0;"/><polygon fill="none" points="511,960.09,518,940.09,525,960.09,511,960.09" style="stroke:#181818;stroke-width:1.0;"/></g><!--MD5=[ca5d2f9d5b31ef51a7fe3ff7dd0787c9]
@startuml
package "room" #DDDDDD {
    abstract class GameComponent {
        - String id
        - String name
        - String description
        + {abstract} void saveOnDb()
        # void setKnownValuesOnStatement(PreparedStatement stm)
    }
    
    abstract class AbstractRoom extends GameComponent {
        - String imgPath
        # void setSecondaryId(char value)
    }
    
    together {
        class PlayableRoom extends AbstractRoom {
            - AbstractRoom south
            - String southId
            - AbstractRoom north
            - String northId
            - AbstractRoom southWest
            - String southWestId
            - AbstractRoom northWest
            - String northWestId
            - AbstractRoom southEast
            - String southEastId
            - AbstractRoom northEast
            - String northEastId
            - AbstractRoom east
            - String eastId
            - AbstractRoom west
            - String westId
            - AbstractRoom up
            - String upId
            - AbstractRoom down
            - String downId
            - List<AbstractEntity> objects
            - RoomEvent event
            - boolean dark
            - boolean darkByDefault
            + List<AbstractEntity> getObjects()
            + List<AbstractEntity> getObjects(Mode mode)
            + Multimap<String, AbstractEntity> getObjectsAsMap(Mode mode)
            + void removeObject(AbstractEntity obj)
            + InvisibleWall getInvisibleWall(Type direction)
            + AbstractRoom getRoomAt(Type direction)
            + void triggerEvent()
            + void processRoomLighting(List<AbstractEntity> inventory)
        }
        
        class CutsceneRoom extends AbstractRoom {
            - String nextRoomId
            - AbstractRoom nextRoom
            - boolean finalRoom
        }
        
        class MutableRoom extends PlayableRoom {
            - MutableRoom newRoom
            - void updateFields()
            + List<AbstractRoom> getAllRooms()
            + void updateToNewRoom()
        }
    }
}
@enduml

PlantUML version 1.2022.7(Mon Aug 22 19:01:30 CEST 2022)
(GPL source distribution)
Java Runtime: OpenJDK Runtime Environment
JVM: OpenJDK 64-Bit Server VM
Default Encoding: UTF-8
Language: it
Country: IT
--></g></svg>